<?xml version="1.0" encoding="UTF-8"?>
<svg xmlns="http://www.w3.org/2000/svg" xmlns:xlink="http://www.w3.org/1999/xlink" viewBox="0 0 1920 241.55">
  <defs>
    <style>
      .cls-1 {
        fill: url(#linear-gradient-2);
      }

      .cls-2 {
        fill: url(#linear-gradient-4);
      }

      .cls-3 {
        fill: url(#linear-gradient-3);
      }

      .cls-4 {
        fill: url(#linear-gradient-5);
      }

      .cls-5 {
        fill: url(#linear-gradient-8);
      }

      .cls-6 {
        fill: url(#linear-gradient-7);
      }

      .cls-7 {
        fill: url(#linear-gradient-6);
      }

      .cls-8 {
        fill: url(#linear-gradient);
      }
    </style>
    <linearGradient id="linear-gradient" x1="858.6" y1="137.2" x2="776" y2="47.88" gradientTransform="translate(2369.45 -61.06) rotate(177.24) scale(1 -1)" gradientUnits="userSpaceOnUse">
      <stop offset="0" stop-color="#fff"/>
      <stop offset=".62" stop-color="#fff" stop-opacity=".9"/>
      <stop offset=".81" stop-color="#fff" stop-opacity=".37"/>
      <stop offset=".97" stop-color="#fff" stop-opacity=".25"/>
    </linearGradient>
    <linearGradient id="linear-gradient-2" x1="1643.78" y1="103.86" x2="1561.17" y2="14.53" xlink:href="#linear-gradient"/>
    <linearGradient id="linear-gradient-3" x1="374.87" y1="168.85" x2="509.11" y2="168.85" gradientUnits="userSpaceOnUse">
      <stop offset="0" stop-color="#fff" stop-opacity=".75"/>
      <stop offset=".52" stop-color="#fff" stop-opacity=".5"/>
      <stop offset="1" stop-color="#fff" stop-opacity=".25"/>
    </linearGradient>
    <linearGradient id="linear-gradient-4" x1="2104.45" y1="113.89" x2="2238.58" y2="113.89" gradientTransform="translate(-332.48 -61.06) rotate(2.76)" xlink:href="#linear-gradient-3"/>
    <linearGradient id="linear-gradient-5" x1="1167.53" y1="201.94" x2="1124.26" y2="134.68" gradientTransform="translate(2369.45 -61.06) rotate(177.24) scale(1 -1)" gradientUnits="userSpaceOnUse">
      <stop offset="0" stop-color="#fff" stop-opacity=".9"/>
      <stop offset="1" stop-color="#fff" stop-opacity=".4"/>
    </linearGradient>
    <linearGradient id="linear-gradient-6" x1="2177.81" y1="59.33" x2="2133.68" y2="-9.25" xlink:href="#linear-gradient-5"/>
    <linearGradient id="linear-gradient-7" x1="867.59" y1="106.54" x2="833.59" y2="52.13" gradientTransform="translate(2337.05 -101.53) rotate(175) scale(1 -1)" gradientUnits="userSpaceOnUse">
      <stop offset="0" stop-color="#fff" stop-opacity=".75"/>
      <stop offset=".59" stop-color="#fff" stop-opacity=".5"/>
      <stop offset="1" stop-color="#fff" stop-opacity=".25"/>
    </linearGradient>
    <linearGradient id="linear-gradient-8" x1="1650.86" y1="42.53" x2="1616.87" y2="-11.88" xlink:href="#linear-gradient-7"/>
  </defs>
  <g id="Layer_3">
    <path class="cls-8" d="M1639.98,63.07c-14.57-.23-29.13-3.23-43.07-8.88-18.6-7.53-37.97-19.87-56.57-12.51-6.19,2.45-11.81,6.99-18.03,9.35-15.06,5.71-32.56-1.72-46.18,8.43-3.79,2.82-7.31,8.01-6.44,13.62,1.13,7.26,8.19,9.32,13.83,9.85,18.25,1.72,36.49,3.43,54.74,5.16,5.36.51,10.81,1,16.04-.56,5.64-1.68,10.76-5.66,16.38-7.46,8.17-2.62,16.72-.46,25.08.84,13.17,2.03,26.52,1.87,39.65-.48,2.91-.52,5.92-1.21,8.31-3.43,2.4-2.21,3.98-6.41,2.92-9.99-.95-3.37-5.79-4.18-8.19-3.55"/>
    <path class="cls-1" d="M854.1,67.57c-14.57-.23-29.13-3.23-43.07-8.88-18.6-7.53-37.97-19.87-56.57-12.51-6.19,2.45-11.81,6.99-18.03,9.35-15.06,5.71-32.56-1.72-46.18,8.43-3.79,2.82-7.31,8.01-6.44,13.62,1.13,7.26,8.19,9.32,13.83,9.85,18.25,1.72,36.49,3.43,54.74,5.16,5.36.51,10.81,1,16.04-.56,5.64-1.68,10.76-5.66,16.38-7.46,8.17-2.62,16.72-.46,25.08.84,13.17,2.03,26.52,1.87,39.65-.48,2.91-.52,5.92-1.21,8.31-3.43,2.4-2.21,3.98-6.41,2.92-9.99-.95-3.37-5.79-4.18-8.19-3.55"/>
  </g>
  <g id="Layer_17">
    <path class="cls-3" d="M380.17,168.42c11.02-.1,22.04-1.48,32.59-4.07,14.07-3.45,28.73-9.11,42.8-5.74,4.68,1.13,8.94,3.21,13.64,4.29,11.39,2.62,24.63-.79,34.94,3.87,2.87,1.29,5.53,3.67,4.87,6.24-.85,3.33-6.2,4.27-10.46,4.52-13.81.79-27.61,1.57-41.42,2.37-4.06.23-8.18.46-12.14-.26-4.27-.77-8.14-2.59-12.39-3.42-6.18-1.2-12.65-.21-18.98.38-9.96.93-20.06.86-30-.22-2.2-.24-4.48-.55-6.29-1.57-1.82-1.01-3.01-2.94-2.21-4.58.72-1.55,4.38-1.92,6.2-1.63"/>
    <path class="cls-2" d="M1769.05,157.15c11.02-.1,22.04-1.48,32.59-4.07,14.07-3.45,28.73-9.11,42.8-5.74,4.68,1.13,8.94,3.21,13.64,4.29,11.39,2.62,24.63-.79,34.94,3.87,2.87,1.29,5.53,3.67,4.87,6.24-.85,3.33-6.2,4.27-10.46,4.52-13.81.79-27.61,1.57-41.42,2.37-4.06.23-8.18.46-12.14-.26-4.27-.77-8.14-2.59-12.39-3.42-6.18-1.2-12.65-.21-18.98.38-9.96.93-20.06.86-30-.22-2.2-.24-4.48-.55-6.29-1.57-1.82-1.01-3.01-2.94-2.21-4.58.72-1.55,4.38-1.92,6.2-1.63"/>
    <path class="cls-4" d="M1301.5,156.96c-12.15-.15-24.29-2.12-35.92-5.82-15.51-4.94-31.66-13.03-47.18-8.21-5.16,1.61-9.85,4.59-15.04,6.13-12.56,3.74-27.15-1.13-38.51,5.53-3.16,1.85-6.1,5.25-5.37,8.93.94,4.76,6.83,6.11,11.53,6.46,15.22,1.13,30.43,2.25,45.65,3.39,4.47.33,9.01.66,13.38-.37,4.7-1.1,8.97-3.71,13.66-4.9,6.81-1.72,13.94-.3,20.92.55,10.98,1.33,22.12,1.23,33.07-.32,2.43-.34,4.94-.79,6.93-2.25,2-1.45,3.32-4.2,2.44-6.55-.79-2.21-4.83-2.74-6.83-2.33"/>
    <path class="cls-7" d="M287.28,62.38c-12.39-.15-24.77-2.16-36.63-5.94-15.82-5.03-32.29-13.29-48.11-8.37-5.26,1.64-10.04,4.68-15.33,6.25-12.81,3.82-27.69-1.15-39.27,5.64-3.22,1.89-6.22,5.36-5.48,9.11.96,4.86,6.96,6.23,11.76,6.59,15.52,1.15,31.03,2.3,46.55,3.45,4.56.34,9.19.67,13.64-.37,4.8-1.12,9.15-3.78,13.93-4.99,6.95-1.75,14.22-.31,21.33.56,11.2,1.36,22.55,1.25,33.72-.32,2.47-.35,5.03-.81,7.07-2.3,2.04-1.48,3.38-4.29,2.48-6.68-.81-2.25-4.92-2.8-6.96-2.37"/>
    <path class="cls-6" d="M1551.8,44.46c-9.81.03-19.73-1.95-29.32-5.87-12.8-5.24-26.31-13.97-38.55-8.34-4.07,1.88-7.68,5.27-11.77,7.06-9.91,4.37-21.97-.8-30.75,6.79-2.44,2.11-4.61,5.94-3.81,10.02,1.04,5.28,5.87,6.68,9.68,6.99,12.34,1,24.69,2,37.03,3,3.63.29,7.32.58,10.78-.63,3.74-1.3,7.02-4.28,10.74-5.67,5.39-2.02,11.23-.56,16.9.26,8.94,1.3,17.92,1,26.66-.9,1.94-.42,3.93-.97,5.46-2.61s2.43-4.72,1.58-7.33c-.77-2.44-4.05-2.97-5.65-2.48"/>
    <path class="cls-5" d="M765.93,48.97c-9.81.03-19.73-1.95-29.32-5.87-12.8-5.24-26.31-13.97-38.55-8.34-4.07,1.88-7.68,5.27-11.77,7.06-9.91,4.37-21.97-.8-30.75,6.79-2.44,2.11-4.61,5.94-3.81,10.02,1.04,5.28,5.87,6.68,9.68,6.99,12.34,1,24.69,2,37.03,3,3.63.29,7.32.58,10.78-.63,3.74-1.3,7.02-4.28,10.74-5.67,5.39-2.02,11.23-.56,16.9.26,8.94,1.3,17.92,1,26.66-.9,1.94-.42,3.93-.97,5.46-2.61s2.43-4.72,1.58-7.33c-.77-2.44-4.05-2.97-5.65-2.48"/>
  </g>
</svg>