<svg width="35" height="35" viewBox="0 0 35 35" fill="none" xmlns="http://www.w3.org/2000/svg">
<path d="M28.9741 3.82812H6.02588C4.8125 3.82812 3.82812 4.8125 3.82812 6.02588V28.9741C3.82812 30.1875 4.8125 31.1719 6.02588 31.1719H28.9741C30.1875 31.1719 31.1719 30.1875 31.1719 28.9741V6.02588C31.1719 4.8125 30.1875 3.82812 28.9741 3.82812ZM28.9741 28.9844C13.6685 28.981 6.01562 28.9775 6.01562 28.9741C6.01904 13.6685 6.02246 6.01562 6.02588 6.01562C21.3315 6.01904 28.9844 6.02246 28.9844 6.02588C28.981 21.3315 28.9775 28.9844 28.9741 28.9844ZM7.88184 14.0786H11.939V27.1284H7.88184V14.0786ZM9.91211 12.2944C11.2075 12.2944 12.2637 11.2417 12.2637 9.94287C12.2637 9.63406 12.2028 9.32827 12.0847 9.04297C11.9665 8.75766 11.7933 8.49843 11.5749 8.28007C11.3566 8.0617 11.0973 7.88849 10.812 7.77031C10.5267 7.65213 10.2209 7.59131 9.91211 7.59131C9.6033 7.59131 9.29751 7.65213 9.01221 7.77031C8.7269 7.88849 8.46767 8.0617 8.2493 8.28007C8.03094 8.49843 7.85773 8.75766 7.73955 9.04297C7.62137 9.32827 7.56055 9.63406 7.56055 9.94287C7.55713 11.2417 8.60986 12.2944 9.91211 12.2944ZM18.5356 20.6719C18.5356 18.9697 18.8604 17.3223 20.9692 17.3223C23.0474 17.3223 23.0781 19.2671 23.0781 20.7812V27.1284H27.1318V19.9712C27.1318 16.4575 26.373 13.7539 22.2681 13.7539C20.2959 13.7539 18.9731 14.8374 18.4297 15.8628H18.375V14.0786H14.4819V27.1284H18.5356V20.6719Z" fill="#FD2064"/>
</svg>
