<?xml version="1.0" encoding="UTF-8"?>
<svg xmlns="http://www.w3.org/2000/svg" viewBox="0 0 500 500">
  <defs>
    <style>
      .cls-1 {
        fill: #ffc7db;
      }
    </style>
  </defs>
  <g id="Layer_2">
    <path class="cls-1" d="M230.11,185.56c8.44-3.41,10.89-13.16,8.25-22.35-7.13-24.84-24.78-33.71-42.86-33.22-34.9.96-62.38,54.13-68.55,96.75-2.44,16.84-1.32,53.09,11.99,75.77,4.94,8.42,23.46,28.36,51.62,27.28,19.47-.75,42-11.4,50.51-31.31,5.27-12.34,6.9-32.3-3.63-39.87-6.01-4.32-12.36-3.13-15.72-1.49-5.53,2.7-8.29,5.54-12.83,11.26-5.43,6.83-15.7,11.35-23.86,9.14-17.18-4.66-20.79-29.62-21.11-33.01-1.73-18.7,2.74-34.35,11.2-50.44,6.48-12.32,20.2-23.4,30.18-22.64,10.23.78,9.85,20.18,24.8,14.13Z"/>
  </g>
  <g id="Layer_3">
    <path class="cls-1" d="M265.94,219.24c6.23-9.75,20.6-1.3,35.26-11.37,18.1-12.44,19.65-38.95,33.26-44.46,11.95-4.84,29.5,1.56,29.23,18.66-1.61,99.71,1.32,138.24-19.73,179.99-26.84,53.25-101.47,79.61-139.98,63.31-30.85-13.06-45.02-39.31-30.68-55.51,9.02-10.18,32.02-.17,53.34-1.67,20.17-1.41,32.42-6.49,43.97-13.67,11.55-7.18,21.53-18.71,30.01-33.26,10.32-17.72,15.8-43.99,6.53-57.57-8.57-12.55-13.46-12.43-29.89-23.14-10.47-6.82-16.86-12.64-11.31-21.32Z"/>
  </g>
  <g id="Layer_6">
    <path class="cls-1" d="M366.34,123.3c-3.65-3.72-8.16-7.37-8.8-12.54-.62-5.04,4.73-13.95,5.62-18.95,1.68-9.39-2.85-13.55-12.3-11.53-2.31.49-9.31,4.28-11.53,5.11-4.9,1.83-10.35-.29-12.97-4.82-.01-.03-.03-.05-.04-.08-4.73-8.37-12.77-10.44-16.86-10.03-4.08.41-8.28,3.73-11.41,9.4-4.32,7.83-1.36,13.01-5.44,19.52-2.48,3.96-7.23,5.68-10.11,5.97-18.16,1.84-25.25,7.1-24.96,14.08.2,4.79,2.54,8.81,23.92,14.03,2.39.58,7.67,2.01,8.62,5.72.4,1.55.03,3.2-.54,4.7-1.71,4.51-5.12,8.13-7.65,12.23-2.99,4.86-4.73,11.36-.37,15.93,2.24,2.34,5.49,3.39,8.72,3.28,5.85-.21,10.73-3.68,14.99-7.44,6.08-5.36,11.42-11.54,17.62-16.76,6.21-5.22,13.56-9.55,21.64-10.25,5.77-.5,11.56.88,17.3.96,2.62.04,5.24-.77,7.17-2.54,5.23-4.8,1.62-11.68-2.62-16ZM326.55,124.01c-7.15,2.34-14.21.37-15.77-4.4-1.56-4.77,2.97-10.53,10.12-12.86,7.15-2.34,14.21-.37,15.77,4.4,1.56,4.77-2.97,10.53-10.12,12.86Z"/>
  </g>
</svg>