<?xml version="1.0" encoding="UTF-8"?>
<svg id="skitse" xmlns="http://www.w3.org/2000/svg" xmlns:xlink="http://www.w3.org/1999/xlink" viewBox="0 0 461.73 425.39">
  <defs>
    <style>
      .cls-1 {
        fill: url(#radial-gradient);
      }

      .cls-2 {
        fill: #fd2064;
      }
    </style>
    <radialGradient id="radial-gradient" cx="238.41" cy="207.66" fx="275.83" fy="179.73" r="126.28" gradientUnits="userSpaceOnUse">
      <stop offset=".1" stop-color="#ff3c78"/>
      <stop offset=".29" stop-color="#fe3271"/>
      <stop offset=".66" stop-color="#fd2467"/>
      <stop offset=".98" stop-color="#fd2064"/>
    </radialGradient>
  </defs>
  <g>
    <path class="cls-2" d="M440.01,213.02c-9.77-10.06-20.85-19.47-27.92-31.75-3.02-5.24-5.35-11.23-5.55-17.34-.18-5.4.93-10.11,2.5-15.54,6.81-23.67,21.34-45.24,21.97-70.43.25-10.05-1.85-20.4-8.51-28.22-6.3-7.39-15.95-10.49-25.36-11.17-10.54-.76-21.28,1.02-31.01,5.07-10.53,4.38-20.69,9.56-31.05,14.32-.96.44-1.92.88-2.88,1.3-.46.2-.91.4-1.37.59.95-.4-.29.11-.59.23-2.68,1.05-5.47,1.84-8.32,2.31-6.11,1-12.43.22-18.24-1.82-5.78-2.03-10.97-5.58-15.16-10.03-4.67-4.95-7.41-11.27-11.38-16.75C263.55,15.06,242.18,1.37,218.72.05c-27.16-1.52-48.34,22.49-58.95,45.04-3.31,7.03-5.7,14.41-7.11,22.06-1.24,6.74-1.82,13.58-2.61,20.38-1.51,12.85-5.18,26.04-14.47,35.53-7.97,8.14-19.74,13.51-30.43,14.93-2.81.37-7.32.73-10.71,1.14-4.16.49-8.31,1.05-12.46,1.67-7.14,1.08-14.25,2.4-21.28,4.08-11.06,2.64-22.05,6.15-32.17,11.41-7.37,3.83-14.5,8.81-19.7,15.37-7.97,10.03-10.76,23.07-7.67,35.53,2.87,11.57,12.27,19.57,22.19,25.33,8.65,5.03,18.05,8.81,27.44,12.2,14.06,5.06,28.49,9.12,42.96,12.84,10.12,2.6,21.2,5.02,29,11.72,4.46,3.83,6.88,8.05,6.65,14.25-.3,7.81-4.28,15.51-8.11,22.15-14.36,24.92-39.67,47.17-37.58,78.51,1,14.93,9.55,28.22,22.81,35.25,13.71,7.26,30.09,7.42,44.7,2.96s28.05-13.56,39.99-23.46c13.14-10.9,25.28-22.98,37.42-34.96,23.37-23.04,47.22-46.35,76.92-61.11,13.7-6.81,28.65-11.64,43.95-12.85,17.91-1.42,35.73,1.69,53.51,3.36,8.56.8,17.28,1.61,25.8.06,7.72-1.41,15.02-4.89,20.9-10.1,10.71-9.49,14.17-23.44,10.56-37.09-3.35-12.63-11.32-23.89-20.27-33.2-4.02-4.18-10.38,2.19-6.36,6.36,8.56,8.9,16.24,19.79,18.62,32.12,1.02,5.3.7,11.1-1.7,16.09-2.93,6.1-8.02,10.82-14.02,13.86-6.65,3.36-13.92,4.04-21.26,3.75-8.79-.35-17.53-1.38-26.26-2.36-17.27-1.95-34.49-3.39-51.72-.25-30.89,5.63-58.2,23.39-81.64,43.55-25.37,21.82-47.25,47.49-73.35,68.48-11.4,9.17-24.24,17.25-38.68,20.45-13.34,2.95-28.69,1.31-39.33-7.96s-13.37-21.73-10.86-34.63c2.7-13.85,10.16-25.73,18.27-37.03,9.07-12.63,18.89-25.02,24.18-39.84,2.72-7.62,3.65-16.02.27-23.58-2.36-5.29-6.8-9.4-11.57-12.52-9.55-6.25-20.87-8.66-31.74-11.5-14-3.66-27.96-7.66-41.55-12.67-8.63-3.17-16.72-6.53-24.82-11.44-1.48-.9-2.94-1.84-4.35-2.84-.34-.24-.68-.48-1.01-.73-.14-.1-1.07-.81-.51-.38s-.34-.27-.47-.38c-.33-.27-.66-.54-.99-.82-1.04-.89-2.05-1.83-3.01-2.82-.43-.44-.84-.9-1.25-1.36-.3-.35-1.6-2.1-.7-.81-1.28-1.83-2.32-3.66-3.33-5.64-.31-.62.41,1.15.11.25-.07-.22-.17-.43-.25-.64-.18-.49-.34-.98-.5-1.47-.3-.97-.54-1.97-.74-2.97-.09-.43-.15-.87-.23-1.31-.13-.77-.03-.38.03.26-.03-.28-.07-.57-.1-.85-.1-.98-.17-1.96-.22-2.95-.07-1.49-.06-2.99.04-4.48.02-.36.05-.72.09-1.08.03-.29.23-1.67.02-.33.13-.81.26-1.61.43-2.4.33-1.54.78-3.06,1.33-4.53.12-.34.26-.67.39-1-.46,1.15.03-.05.16-.34.35-.75.73-1.5,1.13-2.22.81-1.45,1.73-2.83,2.71-4.17.37-.51-.5.62-.1.12.14-.17.28-.35.42-.52.25-.3.5-.61.76-.9.6-.69,1.23-1.37,1.87-2.03,1.32-1.34,2.72-2.59,4.18-3.77.2-.16.39-.32.59-.47.53-.42-.55.41,0,0,.36-.27.73-.54,1.1-.81.87-.62,1.75-1.23,2.65-1.81,3.87-2.5,7.98-4.61,12.21-6.46s10.08-3.85,15.12-5.32c6.2-1.81,12.5-3.27,18.84-4.49,7.25-1.4,14.55-2.5,21.89-3.36,6.33-.74,12.73-1.06,18.91-2.71,12.55-3.35,24.36-10.35,32.29-20.74,8.52-11.16,11.61-24.64,13.16-38.31.71-6.27,1.27-12.54,2.53-18.73,1.52-7.43,3.97-14.6,7.5-21.32,6.45-12.31,15.44-24.29,27.51-31.57,8.21-4.95,16.4-6.49,25.89-5.29-.92-.12.56.09.84.13.56.09,1.12.19,1.67.29,1.15.22,2.3.47,3.45.75,2.36.58,4.69,1.28,6.97,2.09,4.72,1.68,9.4,4.01,13.93,6.9,10.9,6.93,19.27,16.68,25.64,27.82,6.69,11.69,18.2,20.53,31.45,23.33,6.68,1.41,13.56,1.38,20.21-.15,4.7-1.09,9.09-3.12,13.45-5.13,4.98-2.3,9.92-4.69,14.88-7.03,2.62-1.23,5.24-2.46,7.87-3.65,1.21-.55,2.42-1.09,3.63-1.62,1.42-.62,1.72-.75,2.99-1.27,9.14-3.72,19.13-5.17,28.97-4.17,1.47.15,4,.61,6.14,1.23,1.01.29,2,.64,2.98,1.02.82.32.22.1.05.02.25.11.49.22.73.34.48.23.95.47,1.42.73.85.47,1.68.99,2.48,1.55.21.15.42.3.62.45.55.41-.52-.43,0,0,.44.37.87.74,1.29,1.13.65.61,1.25,1.26,1.84,1.93.17.19.33.39.49.59-.11-.14-.5-.69,0,0,.3.42.6.84.87,1.28.57.89,1.08,1.81,1.55,2.75.1.2.59,1.28.44.94-.08-.18.4,1.05.52,1.4.75,2.16,1.26,4.39,1.62,6.64.01.08.04.27.11.91s.12,1.29.17,1.94c.09,1.35.13,2.71.12,4.07-.01,2.87-.21,5.75-.57,8.6-1.42,11.17-6.06,21.74-10.34,32.1-4.78,11.57-10.04,23.31-12.47,35.66-1.12,5.69-1.43,11.22-.39,16.94,1.24,6.76,4.21,13.21,7.95,18.94,7.53,11.52,17.93,20.71,27.44,30.51,4.04,4.16,10.4-2.2,6.36-6.36Z"/>
    <path class="cls-2" d="M277.47,213.63c-2.78.88-5.61,1.63-8.47,2.21-1.29.26-2.58.49-3.88.69.03,0-1.3.19-.62.09s-.64.08-.61.08c-.8.1-1.6.18-2.41.25-2.6.23-5.21.31-7.82.25-1.2-.03-2.39-.09-3.59-.19-.56-.04-1.11-.1-1.66-.15-.37-.04-.73-.08-1.1-.13.79.09.2.03-.25-.04-2.33-.35-4.63-.84-6.89-1.48-1.08-.31-2.16-.66-3.22-1.04-.47-.17-.93-.35-1.39-.53-.28-.11-.99-.27.02.01-.29-.08-.61-.27-.89-.4-1.9-.88-3.74-1.9-5.46-3.08-.3-.21-1.04-.55-1.23-.88.36.62.5.4.08.06-.19-.16-.39-.31-.58-.47-.79-.66-1.54-1.37-2.25-2.11-.15-.15-1.84-2.05-1.8-2.07.05-.04.62.86.1.11-.13-.2-.28-.39-.41-.59-.32-.47-.63-.96-.92-1.45-.44-.74-.81-1.51-1.19-2.28-.45-.91.36.97,0,.02-.07-.18-.14-.36-.21-.54-.2-.53-.38-1.07-.54-1.61-.24-.82-.44-1.66-.6-2.5-.04-.22-.07-.44-.11-.66-.13-.76.05.33.05.4.02-.51-.11-1.09-.14-1.61-.05-.85-.05-1.71-.02-2.56.02-.45.05-.9.09-1.35.02-.23.05-.45.07-.68.1-.99-.19,1.09-.01.11.33-1.84.76-3.65,1.38-5.42.16-.45.34-.9.5-1.35.35-.92-.34.72-.06.13.1-.22.2-.45.3-.67.41-.9.86-1.79,1.34-2.66,1.03-1.87,2.27-3.57,3.47-5.32.38-.56-.69.85-.02.02.14-.17.27-.34.4-.5.34-.42.69-.84,1.05-1.25.8-.92,1.63-1.82,2.49-2.68,1.63-1.64,3.35-3.18,5.15-4.62.18-.15.37-.29.56-.44-.86.68.09-.07.23-.17.43-.33.87-.65,1.31-.96,1.05-.75,2.12-1.46,3.2-2.15,2.14-1.35,4.35-2.59,6.61-3.72,1.17-.58,2.35-1.13,3.54-1.66.24-.11.48-.21.73-.31-.81.35,0,0,.21-.08.68-.28,1.36-.54,2.05-.8,5.29-1.98,10.79-3.43,16.38-4.26.23-.03,1.14-.16.22-.04.27-.03.54-.07.81-.1.67-.08,1.34-.15,2.01-.21,1.45-.13,2.9-.22,4.35-.27,2.55-.08,5.1-.02,7.64.19.62.05,1.23.11,1.84.18.24.03.49.06.73.09-1.04-.12-.19-.03.07.01,1.24.18,2.47.4,3.7.67,2.23.48,4.44,1.1,6.59,1.89.52.19,1.03.39,1.54.59.76.3-.05-.04-.17-.07.3.09.61.27.89.4.96.44,1.91.93,2.83,1.45s1.78,1.05,2.63,1.63c.33.22,1.05.55,1.23.88-.03-.06-.83-.67-.2-.15.27.22.54.44.81.66.71.6,1.39,1.24,2.04,1.91.34.35.67.7.98,1.07.13.15.25.29.38.44.12.15.25.3.37.45q.24.3,0,0l-.18-.23c.11.15.23.31.34.46.11.16.22.31.33.47.27.39.53.79.77,1.2s.48.82.7,1.24c.1.19.61,1.52.75,1.55-.04,0-.41-1.06-.12-.28.09.22.17.45.26.67.15.4.28.81.41,1.22.29.95.53,1.91.7,2.89.03.18.06.35.09.53.17.97-.11-1.11-.02-.13.04.4.08.8.1,1.2.06.94.07,1.89.02,2.83-.02.45-.05.9-.1,1.35-.02.18-.04.36-.06.54-.1.99.19-1.1.01-.11-.16.91-.33,1.82-.56,2.71s-.51,1.82-.82,2.71c-.16.45-.34.9-.5,1.35-.24.65.08-.29.12-.27,0,0-.31.7-.35.8-.86,1.88-1.87,3.69-3,5.41-.55.83-1.13,1.64-1.72,2.45-.62.85.46-.54.02-.02-.17.2-.33.42-.5.63-.38.46-.76.92-1.16,1.37-1.52,1.74-3.15,3.37-4.86,4.92-.78.7-1.58,1.38-2.4,2.04-.28.22-.56.44-.83.66.72-.58.22-.17.06-.05-.58.43-1.16.86-1.75,1.28-4.13,2.93-8.57,5.4-13.2,7.43.03-.01-1.16.49-.55.24s-.6.24-.57.23c-.62.25-1.24.49-1.87.73-1.27.47-2.55.91-3.84,1.33-2.24.72-3.91,3.15-3.14,5.54.72,2.24,3.14,3.92,5.54,3.14,10.81-3.48,21.03-8.96,29.42-16.67,6.78-6.23,12.58-14.31,14.72-23.39,2.02-8.61.55-17.85-4.84-24.98-5.97-7.89-15.07-12.62-24.61-14.74-11.48-2.55-23.57-1.83-34.9,1.14-11.16,2.93-21.69,8.1-30.66,15.37-7.41,6.01-13.66,13.82-16.76,22.92-2.86,8.38-2.26,17.8,2.3,25.47,4.98,8.37,13.77,13.68,22.93,16.37,10.91,3.2,22.66,3,33.73.77,2.93-.59,5.82-1.35,8.67-2.26,2.24-.71,3.91-3.16,3.14-5.54-.73-2.25-3.13-3.9-5.54-3.14Z"/>
  </g>
  <path class="cls-1" d="M373.26,209.96c-9.43-9.74-21.11-19.32-22.67-32.79-1.52-13.12,12.56-36.22,14.97-49.2,4.53-24.41-7.17-35.3-31.81-30.23-6.03,1.24-24.31,10.96-30.1,13.08-12.79,4.68-26.92-.93-33.66-12.76-.04-.07-.08-.13-.11-.2-12.16-21.88-33.06-27.4-43.68-26.4-10.63,1-21.61,9.55-29.87,24.27-11.39,20.3-3.77,33.83-14.51,50.69-6.53,10.27-18.91,14.65-26.42,15.36-47.3,4.47-65.84,18.02-65.2,36.18.44,12.47,6.46,22.98,62,36.93,6.22,1.56,19.93,5.36,22.34,15.03,1.01,4.05.01,8.34-1.5,12.23-4.54,11.69-13.47,21.06-20.12,31.69-7.87,12.58-12.51,29.48-1.25,41.45,5.78,6.14,14.21,8.92,22.64,8.68,15.22-.43,27.98-9.37,39.14-19.08,15.92-13.85,29.92-29.82,46.16-43.29,16.24-13.47,35.46-24.61,56.49-26.27,15.02-1.19,30.07,2.5,45,2.82,6.82.15,13.64-1.91,18.7-6.49,13.7-12.41,4.42-30.38-6.54-41.69ZM269.71,211.11c-18.65,5.96-36.98.71-40.95-11.72-3.97-12.43,7.93-27.34,26.57-33.29,18.65-5.96,36.98-.71,40.95,11.72,3.97,12.43-7.93,27.34-26.57,33.29Z"/>
</svg>