<?xml version="1.0" encoding="UTF-8"?>
<svg xmlns="http://www.w3.org/2000/svg" viewBox="0 0 500 500">
  <defs>
    <style>
      .cls-1 {
        fill: #fff;
      }

      .cls-2 {
        fill: #f7c6d7;
      }
    </style>
  </defs>
  <g id="Layer_2">
    <circle class="cls-2" cx="250" cy="250" r="246"/>
    <path class="cls-1" d="M232.58,185.76c8-3.71,9.89-13.26,6.89-22.02-8.1-23.68-25.61-31.4-43.07-30.04-33.71,2.63-57.7,55.4-61.58,96.92-1.54,16.41,1.31,51.41,15.29,72.7,5.19,7.9,24.07,26.29,51.26,23.86,18.8-1.67,40.07-13.07,47.33-32.75,4.5-12.19,5.1-31.58-5.46-38.38-6.02-3.89-12.1-2.43-15.28-.67-5.21,2.88-7.74,5.77-11.86,11.51-4.92,6.87-14.63,11.75-22.63,10.01-16.84-3.67-21.55-27.63-22.02-30.9-2.58-18.01.97-33.36,8.37-49.33,5.67-12.23,18.4-23.61,28.08-23.37,9.93.25,10.51,19.04,24.68,12.46Z"/>
  </g>
  <g id="Layer_3">
    <path class="cls-1" d="M267.43,232.85c5.29-8.03,17.12-.83,29.42-9.02,15.18-10.11,16.79-32.11,28.15-36.52,9.98-3.88,24.48,1.65,24.05,15.85-2.53,82.78-.56,114.81-18.54,149.23-22.92,43.89-85.22,64.89-117,50.9-25.46-11.22-36.92-33.19-24.81-46.46,7.61-8.35,26.59.24,44.32-.74,16.77-.93,27-5,36.68-10.83,9.68-5.83,18.11-15.28,25.32-27.26,8.78-14.59,13.65-36.34,6.11-47.73-6.97-10.53-11.03-10.48-24.55-19.57-8.61-5.79-13.85-10.7-9.14-17.84Z"/>
  </g>
  <g id="Layer_6">
    <path class="cls-1" d="M361.31,145.96c-3.66-3.78-8.19-7.49-8.8-12.72-.59-5.09,4.87-14.05,5.81-19.09,1.76-9.47-2.78-13.69-12.34-11.73-2.34.48-9.43,4.25-11.67,5.07-4.96,1.82-10.44-.36-13.06-4.95-.01-.03-.03-.05-.04-.08-4.72-8.49-12.82-10.63-16.95-10.24s-8.38,3.7-11.59,9.41c-4.42,7.88-1.46,13.12-5.63,19.66-2.53,3.98-7.34,5.68-10.25,5.96-18.35,1.73-25.54,6.99-25.29,14.04.17,4.84,2.51,8.91,24.05,14.32,2.41.61,7.73,2.08,8.67,5.83.39,1.57,0,3.23-.58,4.74-1.76,4.54-5.22,8.17-7.81,12.29-3.05,4.88-4.85,11.44-.49,16.08,2.24,2.38,5.51,3.46,8.78,3.37,5.9-.17,10.85-3.64,15.18-7.4,6.18-5.37,11.61-11.57,17.91-16.79,6.3-5.23,13.75-9.55,21.91-10.19,5.83-.46,11.67.97,17.46,1.09,2.64.06,5.29-.74,7.25-2.52,5.31-4.81,1.71-11.78-2.54-16.17ZM321.14,146.41c-7.23,2.31-14.35.27-15.89-4.55-1.54-4.82,3.07-10.6,10.31-12.91,7.23-2.31,14.35-.27,15.89,4.55,1.54,4.82-3.07,10.6-10.31,12.91Z"/>
  </g>
</svg>