<svg width="1920" height="700" viewBox="0 0 1920 700" fill="none" xmlns="http://www.w3.org/2000/svg">
<g clip-path="url(#clip0_222_213)">
<rect x="-10" width="1920" height="700" fill="#D9D9D9"/>
<g clip-path="url(#clip1_222_213)">
<path d="M2866.02 -241.274H-1283.66V1522.38H2866.02V-241.274Z" fill="url(#paint0_linear_222_213)"/>
<path d="M-524.786 769.973C-60.9822 676.148 56.9773 686.494 231.338 720.83C284.7 731.337 337.723 747.228 391.441 751.528C518.97 761.728 644.915 706.329 772.267 721.428C820.99 727.199 868.953 743.219 917.578 750.703C1117.01 781.418 1318.22 668.179 1514.76 727.102C1562.06 741.279 1722.64 779.704 1798.53 833.309C1824.22 851.447 1617.16 896.645 1606.95 924.66C1561.74 1048.88 1459.95 1111.95 1362.19 1150.49C1279.93 1182.94 1195.43 1204.45 1111.1 1225.92C975.564 1260.42 839.127 1295.03 700.67 1295.14C385.104 1295.38 -397.03 1207.26 -676.693 997.372C-719.515 965.235 -796.285 881.434 -797.61 815.268" fill="#FCC6D9"/>
<path d="M-826.983 595.289C-641.71 614.509 -238.463 720.684 -133.031 755.682C-24.0923 791.845 81.7753 837.447 192.945 866.044C248.652 880.383 305.829 888.078 362.473 898.068C496.307 921.67 627.861 958.22 754.695 1007.04C811.97 1029.09 869.616 1054.5 913.812 1097.06C958.009 1139.63 986.799 1202.87 973.463 1262.78C963.489 1307.6 931.772 1344.69 896.208 1373.74C827.278 1430.04 742.183 1462.47 657.25 1489.06C470.959 1547.39 286.301 1535.55 91.1997 1542.57C26.4893 1544.9 -112.485 1537.72 -194.929 1536.1C-276.532 1534.5 -409.93 1526.4 -498.84 1528.02C-612.499 1530.09 -957.939 1534.49 -1329.75 1529.64C-1415.13 1528.52 -1591.93 1318.03 -1598.09 1245.12C-1600.66 1214.67 -1608.73 979.574 -1598.09 950.913C-1589.69 928.281 -1533.58 714.655 -1518.88 695.498C-1458.1 616.239 -1101.81 554.859 -826.999 595.273" fill="url(#paint1_linear_222_213)"/>
<path d="M2333.16 705.844C1976.76 682.259 1615.25 739.404 1283.5 871.799C1136.04 930.657 993.912 1004.29 841.148 1047.6C693.234 1089.53 538.822 1102.03 387.448 1128.99C236.091 1155.96 83.0361 1199.62 -38.3181 1294.01C-93.1352 1336.64 -143.927 1399.91 -132.353 1468.39C-124.512 1514.75 -88.5119 1552.54 -46.6757 1574.03C-4.85558 1595.51 42.5415 1603.12 89.1628 1609.27C736.622 1694.46 1401.04 1643.04 2051.15 1581.19C2251.54 1562.13 2871.56 1691.34 3015.55 1550.67C3049.04 1517.93 3022.91 1272.02 3030.1 1225.74C3038.44 1172.12 2967.1 912.439 2958.97 858.786C2942.81 752.094 2523.38 722.98 2351.13 707.445" fill="url(#paint2_linear_222_213)"/>
<path d="M1804.72 154.085C1781.17 153.713 1757.63 148.863 1735.1 139.73C1705.03 127.557 1673.72 107.609 1643.65 119.507C1633.65 123.467 1624.56 130.806 1614.51 134.621C1590.16 143.852 1561.87 131.841 1539.85 148.249C1533.73 152.807 1528.04 161.197 1529.44 170.266C1531.27 182.002 1542.68 185.332 1551.8 186.189C1581.3 188.97 1610.79 191.734 1640.29 194.531C1648.95 195.355 1657.76 196.147 1666.22 193.625C1675.34 190.91 1683.61 184.476 1692.7 181.566C1705.91 177.331 1719.73 180.822 1733.24 182.924C1754.53 186.205 1776.11 185.947 1797.34 182.148C1802.04 181.307 1806.91 180.192 1810.77 176.603C1814.65 173.031 1817.2 166.241 1815.49 160.454C1813.95 155.006 1806.13 153.697 1802.25 154.715" fill="url(#paint3_linear_222_213)"/>
<path d="M534.311 161.359C510.758 160.987 487.221 156.138 464.687 147.004C434.619 134.831 403.306 114.883 373.239 126.781C363.232 130.742 354.147 138.081 344.092 141.896C319.747 151.126 291.457 139.115 269.44 155.523C263.313 160.082 257.623 168.472 259.029 177.541C260.856 189.277 272.269 192.607 281.386 193.464C310.888 196.244 340.374 199.008 369.876 201.805C378.541 202.629 387.351 203.422 395.806 200.9C404.923 198.184 413.2 191.75 422.285 188.84C435.492 184.605 449.313 188.097 462.828 190.198C484.118 193.48 505.698 193.221 526.924 189.422C531.628 188.582 536.494 187.466 540.357 183.877C544.237 180.305 546.791 173.515 545.077 167.728C543.542 162.28 535.718 160.971 531.838 161.989" fill="url(#paint4_linear_222_213)"/>
<path d="M1257.56 305.862C1237.91 305.62 1218.29 302.435 1199.49 296.454C1174.42 288.468 1148.31 275.39 1123.22 283.182C1114.88 285.785 1107.3 290.602 1098.91 293.092C1078.6 299.137 1055.02 291.265 1036.65 302.031C1031.55 305.022 1026.79 310.518 1027.97 316.467C1029.49 324.162 1039.01 326.344 1046.61 326.91C1071.22 328.736 1095.8 330.547 1120.41 332.39C1127.63 332.923 1134.97 333.457 1142.04 331.792C1149.63 330.013 1156.54 325.794 1164.12 323.871C1175.13 321.09 1186.65 323.386 1197.94 324.76C1215.69 326.91 1233.69 326.748 1251.4 324.242C1255.32 323.693 1259.38 322.965 1262.6 320.605C1265.83 318.261 1267.97 313.816 1266.54 310.017C1265.27 306.444 1258.74 305.587 1255.5 306.25" fill="url(#paint5_linear_222_213)"/>
<path d="M1662.18 124.001C1646.32 124.049 1630.28 120.848 1614.78 114.512C1594.09 106.041 1572.25 91.9284 1552.46 101.03C1545.88 104.069 1540.05 109.549 1533.44 112.442C1517.42 119.507 1497.92 111.149 1483.73 123.419C1479.78 126.83 1476.27 133.021 1477.57 139.616C1479.25 148.152 1487.06 150.415 1493.22 150.916C1513.16 152.533 1533.13 154.149 1553.08 155.766C1558.95 156.235 1564.91 156.703 1570.5 154.747C1576.55 152.646 1581.85 147.829 1587.86 145.582C1596.58 142.316 1606.02 144.676 1615.18 146.002C1629.64 148.103 1644.15 147.618 1658.28 144.547C1661.42 143.868 1664.63 142.979 1667.11 140.328C1669.58 137.677 1671.04 132.698 1669.66 128.478C1668.42 124.534 1663.12 123.677 1660.53 124.469" fill="url(#paint6_linear_222_213)"/>
<path d="M391.78 131.291C375.922 131.34 359.886 128.139 344.383 121.802C323.691 113.331 301.852 99.2189 282.065 108.32C275.486 111.359 269.65 116.839 263.038 119.733C247.018 126.797 227.523 118.44 213.33 130.709C209.385 134.12 205.877 140.312 207.171 146.907C208.852 155.442 216.66 157.706 222.819 158.207C242.767 159.823 262.731 161.44 282.679 163.056C288.548 163.525 294.513 163.994 300.106 162.038C306.152 159.936 311.454 155.119 317.468 152.872C326.181 149.607 335.621 151.967 344.787 153.292C359.239 155.394 373.756 154.909 387.884 151.837C391.02 151.159 394.237 150.269 396.711 147.618C399.184 144.967 400.639 139.988 399.265 135.769C398.02 131.825 392.718 130.968 390.131 131.76" fill="url(#paint7_linear_222_213)"/>
</g>
</g>
<defs>
<linearGradient id="paint0_linear_222_213" x1="-1283.66" y1="640.552" x2="2866.02" y2="640.552" gradientUnits="userSpaceOnUse">
<stop stop-color="#FFF1F2"/>
<stop offset="0.57" stop-color="#FFE9F2"/>
<stop offset="0.87" stop-color="#FFDFEC"/>
<stop offset="1" stop-color="#FFD6E7"/>
</linearGradient>
<linearGradient id="paint1_linear_222_213" x1="-1603.43" y1="1062.78" x2="976.744" y2="1062.78" gradientUnits="userSpaceOnUse">
<stop stop-color="#ED206A"/>
<stop offset="0.99" stop-color="#E81963"/>
</linearGradient>
<linearGradient id="paint2_linear_222_213" x1="-141.209" y1="1255.04" x2="3028.03" y2="1136.61" gradientUnits="userSpaceOnUse">
<stop stop-color="#FE3371"/>
<stop offset="0.57" stop-color="#FE3371"/>
<stop offset="0.87" stop-color="#FD2064"/>
<stop offset="0.99" stop-color="#FD2064"/>
</linearGradient>
<linearGradient id="paint3_linear_222_213" x1="1608.27" y1="241.79" x2="1734.69" y2="91.1374" gradientUnits="userSpaceOnUse">
<stop stop-color="white"/>
<stop offset="0.62" stop-color="white" stop-opacity="0.9"/>
<stop offset="0.81" stop-color="white" stop-opacity="0.37"/>
<stop offset="0.97" stop-color="white" stop-opacity="0.25"/>
</linearGradient>
<linearGradient id="paint4_linear_222_213" x1="337.865" y1="249.075" x2="464.3" y2="98.4063" gradientUnits="userSpaceOnUse">
<stop stop-color="white"/>
<stop offset="0.62" stop-color="white" stop-opacity="0.9"/>
<stop offset="0.81" stop-color="white" stop-opacity="0.37"/>
<stop offset="0.97" stop-color="white" stop-opacity="0.25"/>
</linearGradient>
<linearGradient id="paint5_linear_222_213" x1="1114.49" y1="370.371" x2="1179.12" y2="258.4" gradientUnits="userSpaceOnUse">
<stop stop-color="white" stop-opacity="0.9"/>
<stop offset="1" stop-color="white" stop-opacity="0.4"/>
</linearGradient>
<linearGradient id="paint6_linear_222_213" x1="1549.42" y1="181.808" x2="1596.51" y2="89.3965" gradientUnits="userSpaceOnUse">
<stop stop-color="white" stop-opacity="0.75"/>
<stop offset="0.59" stop-color="white" stop-opacity="0.5"/>
<stop offset="1" stop-color="white" stop-opacity="0.25"/>
</linearGradient>
<linearGradient id="paint7_linear_222_213" x1="279.024" y1="189.083" x2="326.095" y2="96.6724" gradientUnits="userSpaceOnUse">
<stop stop-color="white" stop-opacity="0.75"/>
<stop offset="0.59" stop-color="white" stop-opacity="0.5"/>
<stop offset="1" stop-color="white" stop-opacity="0.25"/>
</linearGradient>
<clipPath id="clip0_222_213">
<rect width="1930" height="700" fill="white" transform="translate(-10)"/>
</clipPath>
<clipPath id="clip1_222_213">
<rect width="4138.36" height="1745.87" fill="white" transform="translate(-1278 -234)"/>
</clipPath>
</defs>
</svg>
