<?xml version="1.0" encoding="UTF-8"?>
<svg xmlns="http://www.w3.org/2000/svg" xmlns:xlink="http://www.w3.org/1999/xlink" viewBox="0 0 2560 1080">
  <defs>
    <style>
      .cls-1 {
        fill: url(#linear-gradient-2);
      }

      .cls-2 {
        fill: url(#linear-gradient-4);
      }

      .cls-3 {
        fill: url(#linear-gradient-3);
      }

      .cls-4 {
        fill: url(#linear-gradient-5);
      }

      .cls-5 {
        fill: url(#linear-gradient-7);
      }

      .cls-6 {
        fill: url(#linear-gradient-6);
      }

      .cls-7 {
        fill: url(#linear-gradient);
      }
    </style>
    <linearGradient id="linear-gradient" x1="-2.5" y1="541.5" x2="2557.5" y2="541.5" gradientUnits="userSpaceOnUse">
      <stop offset="0" stop-color="#fff1f2"/>
      <stop offset=".57" stop-color="#ffe9f2"/>
      <stop offset=".87" stop-color="#ffdfec"/>
      <stop offset="1" stop-color="#ffd6e7"/>
    </linearGradient>
    <linearGradient id="linear-gradient-2" x1="2744.84" y1="379.16" x2="3021.88" y2="379.16" gradientTransform="translate(3006.5 -69.19) rotate(178) scale(1 -1)" gradientUnits="userSpaceOnUse">
      <stop offset="0" stop-color="#fff" stop-opacity=".9"/>
      <stop offset=".27" stop-color="#fff" stop-opacity=".75"/>
      <stop offset=".77" stop-color="#fff" stop-opacity=".5"/>
      <stop offset="1" stop-color="#fff" stop-opacity=".4"/>
    </linearGradient>
    <linearGradient id="linear-gradient-3" x1="1909.8" y1="567.71" x2="2186.84" y2="567.71" gradientTransform="translate(3009.31 11.2) rotate(178) scale(1 -.49)" gradientUnits="userSpaceOnUse">
      <stop offset="0" stop-color="#fff" stop-opacity=".5"/>
      <stop offset=".56" stop-color="#fff" stop-opacity=".35"/>
      <stop offset="1" stop-color="#fff" stop-opacity=".25"/>
    </linearGradient>
    <linearGradient id="linear-gradient-4" x1="1455.64" y1="129.48" x2="1732.68" y2="129.48" xlink:href="#linear-gradient-3"/>
    <linearGradient id="linear-gradient-5" x1="716.64" y1="184.86" x2="1099.52" y2="184.86" gradientTransform="translate(-311.96 -76.87) rotate(2.76)" gradientUnits="userSpaceOnUse">
      <stop offset="0" stop-color="#fff" stop-opacity=".9"/>
      <stop offset=".27" stop-color="#fff" stop-opacity=".75"/>
      <stop offset=".77" stop-color="#fff" stop-opacity=".5"/>
      <stop offset="1" stop-color="#fff" stop-opacity=".4"/>
    </linearGradient>
    <linearGradient id="linear-gradient-6" x1="474.67" y1="219.62" x2="751.71" y2="219.62" xlink:href="#linear-gradient-3"/>
    <linearGradient id="linear-gradient-7" x1="910.8" y1="385.39" x2="1293.68" y2="385.39" gradientTransform="translate(3024.93 -76.87) rotate(177.24) scale(1 -1)" gradientUnits="userSpaceOnUse">
      <stop offset="0" stop-color="#fff" stop-opacity=".5"/>
      <stop offset="1" stop-color="#fff" stop-opacity=".4"/>
    </linearGradient>
  </defs>
  <g id="Layer_15">
    <rect class="cls-7" x="-2.5" y="-4" width="2560" height="1091"/>
  </g>
  <g id="Layer_17">
    <path class="cls-1" d="M266.28,413.74c-22.79-1.11-45.54-6.93-67.33-17.2-29.08-13.7-59.36-35.62-88.45-24.03-9.68,3.86-18.47,11.29-28.18,14.97-23.54,8.94-50.9-4.53-72.19,12.02-5.93,4.61-11.43,13.23-10.06,22.79,1.77,12.38,12.81,16.23,21.63,17.41,28.52,3.82,57.05,7.64,85.57,11.47,8.38,1.12,16.9,2.24,25.08-.14,8.83-2.57,16.82-9.07,25.61-11.85,12.77-4.03,26.14.06,39.2,2.66,20.58,4.1,41.46,4.49,61.98,1.14,4.55-.74,9.25-1.76,13-5.41,3.74-3.64,6.22-10.67,4.57-16.82-1.49-5.76-9.05-7.38-12.81-6.44"/>
    <path class="cls-3" d="M1099.94,359.9c-22.75-.14-45.39-2.59-66.98-7.23-28.81-6.2-58.69-16.41-87.96-10.21-9.74,2.06-18.66,5.86-28.43,7.84-23.69,4.8-50.79-1.31-72.36,7.18-6,2.36-11.66,6.69-10.46,11.35,1.55,6.04,12.51,7.73,21.3,8.15,28.44,1.37,56.88,2.73,85.32,4.1,8.35.4,16.85.8,25.07-.52,8.87-1.42,16.97-4.75,25.8-6.27,12.83-2.2,26.12-.44,39.13.61,20.5,1.65,41.36,1.46,61.92-.55,4.56-.45,9.28-1.03,13.08-2.88,3.81-1.85,6.41-5.34,4.86-8.33-1.38-2.8-8.91-3.46-12.68-2.93"/>
    <path class="cls-2" d="M1546.34,129.57c-22.75-.14-45.39-2.59-66.98-7.23-28.81-6.2-58.69-16.41-87.96-10.21-9.74,2.06-18.66,5.86-28.43,7.84-23.69,4.8-50.79-1.31-72.36,7.18-6,2.36-11.66,6.69-10.46,11.35,1.55,6.04,12.51,7.73,21.3,8.15,28.44,1.37,56.88,2.73,85.32,4.1,8.35.4,16.85.8,25.07-.52,8.87-1.42,16.97-4.75,25.8-6.27,12.83-2.2,26.12-.44,39.13.61,20.5,1.65,41.36,1.46,61.92-.55,4.56-.45,9.28-1.03,13.08-2.88,3.81-1.85,6.41-5.34,4.86-8.33-1.38-2.8-8.91-3.46-12.68-2.93"/>
    <path class="cls-4" d="M409.15,150.85c31.47-.39,62.9-5.49,93-15.07,40.16-12.79,82-33.76,122.17-21.24,13.37,4.17,25.51,11.88,38.93,15.88,32.52,9.69,70.31-2.92,99.72,14.32,8.19,4.8,15.79,13.6,13.9,23.12-2.45,12.33-17.69,15.83-29.87,16.73-39.4,2.92-78.8,5.84-118.2,8.76-11.57.86-23.34,1.7-34.65-.94-12.19-2.85-23.23-9.61-35.37-12.67-17.63-4.44-36.11-.77-54.15,1.42-28.43,3.45-57.27,3.18-85.61-.83-6.28-.89-12.78-2.06-17.95-5.82-5.17-3.77-8.59-10.87-6.31-16.98,2.05-5.71,12.5-7.09,17.69-6.03"/>
    <path class="cls-6" d="M2528.25,139.46c-22.75-.14-45.39-2.59-66.98-7.23-28.81-6.2-58.69-16.41-87.96-10.21-9.74,2.06-18.66,5.86-28.43,7.84-23.69,4.8-50.79-1.31-72.36,7.18-6,2.36-11.66,6.69-10.46,11.35,1.55,6.04,12.51,7.73,21.3,8.15,28.44,1.37,56.88,2.73,85.32,4.1,8.35.4,16.85.8,25.07-.52,8.87-1.42,16.97-4.75,25.8-6.27,12.83-2.2,26.12-.44,39.13.61,20.5,1.65,41.36,1.46,61.92-.55,4.56-.45,9.28-1.03,13.08-2.88,3.81-1.85,6.41-5.34,4.86-8.33-1.38-2.8-8.91-3.46-12.68-2.93"/>
    <path class="cls-5" d="M2119.55,360.51c-31.47-.39-62.9-5.49-93-15.07-40.16-12.79-82-33.76-122.17-21.24-13.37,4.17-25.51,11.88-38.93,15.88-32.52,9.69-70.31-2.92-99.72,14.32-8.19,4.8-15.79,13.6-13.9,23.12,2.45,12.33,17.69,15.83,29.87,16.73,39.4,2.92,78.8,5.84,118.2,8.76,11.57.86,23.34,1.7,34.65-.94,12.19-2.85,23.23-9.61,35.37-12.67,17.63-4.44,36.11-.77,54.15,1.42,28.43,3.45,57.27,3.18,85.61-.83,6.28-.89,12.78-2.06,17.95-5.82,5.17-3.77,8.59-10.87,6.31-16.98-2.05-5.71-12.5-7.09-17.69-6.03"/>
  </g>
</svg>