<?xml version="1.0" encoding="UTF-8"?>
<svg id="Layer_17" xmlns="http://www.w3.org/2000/svg" xmlns:xlink="http://www.w3.org/1999/xlink" viewBox="0 0 1920 1080">
  <defs>
    <style>
      .cls-1 {
        fill: url(#linear-gradient-2);
      }

      .cls-2 {
        fill: url(#linear-gradient-4);
      }

      .cls-3 {
        fill: url(#linear-gradient-3);
      }

      .cls-4 {
        fill: url(#linear-gradient-5);
      }

      .cls-5 {
        fill: url(#linear-gradient-8);
      }

      .cls-6 {
        fill: url(#linear-gradient-7);
      }

      .cls-7 {
        fill: url(#linear-gradient-6);
      }

      .cls-8 {
        fill: url(#linear-gradient);
      }
    </style>
    <linearGradient id="linear-gradient" x1="1917.85" y1="258.85" x2="2046.14" y2="258.85" gradientTransform="translate(2330.71 -57.4) rotate(178) scale(1 -1)" gradientUnits="userSpaceOnUse">
      <stop offset="0" stop-color="#fff" stop-opacity=".9"/>
      <stop offset=".27" stop-color="#fff" stop-opacity=".75"/>
      <stop offset=".77" stop-color="#fff" stop-opacity=".5"/>
      <stop offset="1" stop-color="#fff" stop-opacity=".4"/>
    </linearGradient>
    <linearGradient id="linear-gradient-2" x1="1531.16" y1="344.74" x2="1659.45" y2="344.74" gradientTransform="translate(2333.51 22.99) rotate(178) scale(1 -.49)" gradientUnits="userSpaceOnUse">
      <stop offset="0" stop-color="#fff" stop-opacity=".5"/>
      <stop offset=".56" stop-color="#fff" stop-opacity=".35"/>
      <stop offset="1" stop-color="#fff" stop-opacity=".25"/>
    </linearGradient>
    <linearGradient id="linear-gradient-3" x1="1166.63" y1="153.74" x2="1294.92" y2="153.74" xlink:href="#linear-gradient-2"/>
    <linearGradient id="linear-gradient-4" x1="523.41" y1="397.81" x2="651.7" y2="397.81" xlink:href="#linear-gradient-2"/>
    <linearGradient id="linear-gradient-5" x1="799.29" y1="168.59" x2="976.59" y2="168.59" gradientTransform="translate(-312.36 -60.58) rotate(2.76)" gradientUnits="userSpaceOnUse">
      <stop offset="0" stop-color="#fff" stop-opacity=".9"/>
      <stop offset=".27" stop-color="#fff" stop-opacity=".75"/>
      <stop offset=".77" stop-color="#fff" stop-opacity=".5"/>
      <stop offset="1" stop-color="#fff" stop-opacity=".4"/>
    </linearGradient>
    <linearGradient id="linear-gradient-6" x1="712.36" y1="195.49" x2="840.65" y2="195.49" xlink:href="#linear-gradient-2"/>
    <linearGradient id="linear-gradient-7" x1="925.52" y1="260.17" x2="1102.82" y2="260.17" gradientTransform="translate(2349.33 -60.58) rotate(177.24) scale(1 -1)" gradientUnits="userSpaceOnUse">
      <stop offset="0" stop-color="#fff" stop-opacity=".5"/>
      <stop offset="1" stop-color="#fff" stop-opacity=".4"/>
    </linearGradient>
    <linearGradient id="linear-gradient-8" x1="2080.19" y1="233.05" x2="2208.48" y2="233.05" xlink:href="#linear-gradient-2"/>
  </defs>
  <path class="cls-8" d="M418.3,272.03c-10.55-.52-21.09-3.21-31.18-7.96-13.46-6.35-27.49-16.5-40.96-11.13-4.48,1.79-8.55,5.23-13.05,6.93-10.9,4.14-23.57-2.1-33.43,5.57-2.74,2.13-5.29,6.12-4.66,10.55.82,5.73,5.93,7.51,10.01,8.06,13.21,1.77,26.42,3.54,39.63,5.31,3.88.52,7.83,1.04,11.62-.07,4.09-1.19,7.79-4.2,11.86-5.49,5.91-1.87,12.1.03,18.15,1.23,9.53,1.9,19.2,2.08,28.7.53,2.11-.34,4.28-.82,6.02-2.5s2.88-4.94,2.11-7.79c-.69-2.67-4.19-3.42-5.93-2.98"/>
  <path class="cls-1" d="M804.35,247.1c-10.54-.07-21.02-1.2-31.02-3.35-13.34-2.87-27.18-7.6-40.73-4.73-4.51.96-8.64,2.71-13.17,3.63-10.97,2.22-23.52-.61-33.51,3.32-2.78,1.09-5.4,3.1-4.85,5.26.72,2.8,5.79,3.58,9.86,3.77,13.17.63,26.34,1.27,39.51,1.9,3.87.19,7.8.37,11.61-.24,4.11-.66,7.86-2.2,11.95-2.9,5.94-1.02,12.1-.2,18.12.28,9.49.76,19.15.68,28.68-.25,2.11-.21,4.3-.48,6.06-1.33s2.97-2.47,2.25-3.86c-.64-1.3-4.13-1.6-5.87-1.36"/>
  <path class="cls-3" d="M1165.4,140.9c-10.54-.07-21.02-1.2-31.02-3.35-13.34-2.87-27.18-7.6-40.73-4.73-4.51.96-8.64,2.71-13.17,3.63-10.97,2.22-23.52-.61-33.51,3.32-2.78,1.09-5.4,3.1-4.85,5.26.72,2.8,5.79,3.58,9.86,3.77,13.17.63,26.34,1.27,39.51,1.9,3.87.19,7.8.37,11.61-.24,4.11-.66,7.86-2.2,11.95-2.9,5.94-1.02,12.1-.2,18.12.28,9.49.76,19.15.68,28.68-.25,2.11-.21,4.3-.48,6.06-1.33s2.97-2.47,2.25-3.86c-.64-1.3-4.13-1.6-5.87-1.36"/>
  <path class="cls-2" d="M1812.4,237.9c-10.54-.07-21.02-1.2-31.02-3.35-13.34-2.87-27.18-7.6-40.73-4.73-4.51.96-8.64,2.71-13.17,3.63-10.97,2.22-23.52-.61-33.51,3.32-2.78,1.09-5.4,3.1-4.85,5.26.72,2.8,5.79,3.58,9.86,3.77,13.17.63,26.34,1.27,39.51,1.9,3.87.19,7.8.37,11.61-.24,4.11-.66,7.86-2.2,11.95-2.9,5.94-1.02,12.1-.2,18.12.28,9.49.76,19.15.68,28.68-.25,2.11-.21,4.3-.48,6.06-1.33s2.97-2.47,2.25-3.86c-.64-1.3-4.13-1.6-5.87-1.36"/>
  <path class="cls-4" d="M484.46,150.29c14.57-.18,29.13-2.54,43.07-6.98,18.6-5.92,37.97-15.63,56.57-9.84,6.19,1.93,11.81,5.5,18.03,7.35,15.06,4.49,32.56-1.35,46.18,6.63,3.79,2.22,7.31,6.3,6.44,10.71-1.13,5.71-8.19,7.33-13.83,7.75-18.25,1.35-36.49,2.7-54.74,4.06-5.36.4-10.81.79-16.04-.44-5.64-1.32-10.76-4.45-16.38-5.87-8.17-2.06-16.72-.36-25.08.66-13.17,1.6-26.52,1.47-39.65-.38-2.91-.41-5.92-.95-8.31-2.7-2.4-1.74-3.98-5.04-2.92-7.86.95-2.65,5.79-3.29,8.19-2.79"/>
  <path class="cls-7" d="M1620.1,145.48c-10.54-.07-21.02-1.2-31.02-3.35-13.34-2.87-27.18-7.6-40.73-4.73-4.51.96-8.64,2.71-13.17,3.63-10.97,2.22-23.52-.61-33.51,3.32-2.78,1.09-5.4,3.1-4.85,5.26.72,2.8,5.79,3.58,9.86,3.77,13.17.63,26.34,1.27,39.51,1.9,3.87.19,7.8.37,11.61-.24,4.11-.66,7.86-2.2,11.95-2.9,5.94-1.02,12.1-.2,18.12.28,9.49.76,19.15.68,28.68-.25,2.11-.21,4.3-.48,6.06-1.33s2.97-2.47,2.25-3.86c-.64-1.3-4.13-1.6-5.87-1.36"/>
  <path class="cls-6" d="M1430.84,247.84c-14.57-.18-29.13-2.54-43.07-6.98-18.6-5.92-37.97-15.63-56.57-9.84-6.19,1.93-11.81,5.5-18.03,7.35-15.06,4.49-32.56-1.35-46.18,6.63-3.79,2.22-7.31,6.3-6.44,10.71,1.13,5.71,8.19,7.33,13.83,7.75,18.25,1.35,36.49,2.7,54.74,4.06,5.36.4,10.81.79,16.04-.44,5.64-1.32,10.76-4.45,16.38-5.87,8.17-2.06,16.72-.36,25.08.66,13.17,1.6,26.52,1.47,39.65-.38,2.91-.41,5.92-.95,8.31-2.7,2.4-1.74,3.98-5.04,2.92-7.86-.95-2.65-5.79-3.29-8.19-2.79"/>
  <path class="cls-5" d="M253.75,211.6c-10.54-.07-21.02-1.2-31.02-3.35-13.34-2.87-27.18-7.6-40.73-4.73-4.51.96-8.64,2.71-13.17,3.63-10.97,2.22-23.52-.61-33.51,3.32-2.78,1.09-5.4,3.1-4.85,5.26.72,2.8,5.79,3.58,9.86,3.77,13.17.63,26.34,1.27,39.51,1.9,3.87.19,7.8.37,11.61-.24,4.11-.66,7.86-2.2,11.95-2.9,5.94-1.02,12.1-.2,18.12.28,9.49.76,19.15.68,28.68-.25,2.11-.21,4.3-.48,6.06-1.33s2.97-2.47,2.25-3.86c-.64-1.3-4.13-1.6-5.87-1.36"/>
</svg>