<?xml version="1.0" encoding="UTF-8"?>
<svg xmlns="http://www.w3.org/2000/svg" xmlns:xlink="http://www.w3.org/1999/xlink" viewBox="0 0 2080 1080">
  <defs>
    <style>
      .cls-1 {
        fill: url(#linear-gradient-15);
      }

      .cls-2 {
        fill: url(#linear-gradient-13);
      }

      .cls-3 {
        fill: #5cff8a;
      }

      .cls-4 {
        fill: url(#linear-gradient-2);
      }

      .cls-5 {
        fill: url(#linear-gradient-10);
      }

      .cls-6 {
        fill: url(#linear-gradient-12);
      }

      .cls-7 {
        opacity: .07;
      }

      .cls-8 {
        fill: #f2d0c9;
      }

      .cls-9 {
        fill: none;
      }

      .cls-10 {
        fill: url(#linear-gradient-4);
      }

      .cls-11 {
        fill: url(#radial-gradient);
      }

      .cls-12 {
        fill: url(#linear-gradient-3);
      }

      .cls-13 {
        fill: url(#linear-gradient-5);
      }

      .cls-14 {
        fill: url(#linear-gradient-8);
      }

      .cls-15 {
        stroke-width: 4px;
      }

      .cls-15, .cls-16, .cls-17 {
        fill: #fff;
        stroke: #a00a47;
        stroke-miterlimit: 10;
      }

      .cls-16 {
        stroke-width: 3px;
      }

      .cls-18 {
        fill: url(#linear-gradient-14);
      }

      .cls-19 {
        fill: url(#linear-gradient-17);
      }

      .cls-20 {
        fill: url(#linear-gradient-7);
      }

      .cls-21 {
        fill: url(#linear-gradient-9);
      }

      .cls-22 {
        fill: #999;
      }

      .cls-23 {
        fill: url(#linear-gradient-11);
      }

      .cls-24 {
        fill: url(#linear-gradient-19);
      }

      .cls-25 {
        fill: #ff5592;
      }

      .cls-26 {
        fill: url(#linear-gradient-6);
      }

      .cls-27 {
        opacity: .1;
      }

      .cls-28 {
        opacity: .04;
      }

      .cls-29 {
        fill: #aaa;
      }

      .cls-30 {
        fill: url(#linear-gradient-16);
      }

      .cls-31 {
        fill: #7683e2;
      }

      .cls-32 {
        fill: #fd2064;
      }

      .cls-33 {
        fill: url(#linear-gradient);
      }

      .cls-17 {
        stroke-width: 2px;
      }

      .cls-34 {
        clip-path: url(#clippath);
      }

      .cls-35 {
        opacity: .5;
      }

      .cls-36 {
        fill: url(#linear-gradient-18);
      }

      .cls-37 {
        fill: #fde7d6;
      }
    </style>
    <linearGradient id="linear-gradient" x1="514.44" y1="313.43" x2="723.29" y2="313.43" gradientTransform="translate(2533.22 -65.01) rotate(177.24) scale(1 -1)" gradientUnits="userSpaceOnUse">
      <stop offset="0" stop-color="#fff" stop-opacity=".5"/>
      <stop offset="1" stop-color="#fff" stop-opacity=".4"/>
    </linearGradient>
    <clipPath id="clippath">
      <rect class="cls-9" y="-5" width="2080" height="1085"/>
    </clipPath>
    <linearGradient id="linear-gradient-2" x1="0" y1="570" x2="2080" y2="570" gradientUnits="userSpaceOnUse">
      <stop offset="0" stop-color="#fff1f2"/>
      <stop offset=".57" stop-color="#ffe9f2"/>
      <stop offset=".87" stop-color="#ffdfec"/>
      <stop offset=".99" stop-color="#ffd6e7"/>
    </linearGradient>
    <linearGradient id="linear-gradient-3" x1="1281.98" y1="275.21" x2="1284.87" y2="275.21" gradientUnits="userSpaceOnUse">
      <stop offset="0" stop-color="#fff" stop-opacity=".6"/>
      <stop offset=".47" stop-color="#fff" stop-opacity=".5"/>
      <stop offset="1" stop-color="#fff" stop-opacity=".4"/>
    </linearGradient>
    <linearGradient id="linear-gradient-4" x1="2053.09" y1="289.55" x2="2204.2" y2="289.55" gradientTransform="translate(2514.65 -60.61) rotate(178) scale(1 -1)" gradientUnits="userSpaceOnUse">
      <stop offset="0" stop-color="#fff" stop-opacity=".9"/>
      <stop offset=".27" stop-color="#fff" stop-opacity=".75"/>
      <stop offset=".77" stop-color="#fff" stop-opacity=".5"/>
      <stop offset="1" stop-color="#fff" stop-opacity=".4"/>
    </linearGradient>
    <linearGradient id="linear-gradient-5" x1="1597.6" y1="403.95" x2="1748.71" y2="403.95" gradientTransform="translate(2517.46 19.78) rotate(178) scale(1 -.49)" gradientUnits="userSpaceOnUse">
      <stop offset="0" stop-color="#fff" stop-opacity=".5"/>
      <stop offset=".56" stop-color="#fff" stop-opacity=".35"/>
      <stop offset="1" stop-color="#fff" stop-opacity=".25"/>
    </linearGradient>
    <linearGradient id="linear-gradient-6" x1="801.75" y1="207.34" x2="952.87" y2="207.34" xlink:href="#linear-gradient-5"/>
    <linearGradient id="linear-gradient-7" x1="859.44" y1="180.65" x2="1068.29" y2="180.65" gradientTransform="translate(-312.25 -65.01) rotate(2.76)" gradientUnits="userSpaceOnUse">
      <stop offset="0" stop-color="#fff" stop-opacity=".9"/>
      <stop offset=".27" stop-color="#fff" stop-opacity=".75"/>
      <stop offset=".77" stop-color="#fff" stop-opacity=".5"/>
      <stop offset="1" stop-color="#fff" stop-opacity=".4"/>
    </linearGradient>
    <linearGradient id="linear-gradient-8" x1="-198.98" y1="905.25" x2="980.49" y2="905.25" gradientUnits="userSpaceOnUse">
      <stop offset="0" stop-color="#ed206a"/>
      <stop offset=".99" stop-color="#e81963"/>
    </linearGradient>
    <linearGradient id="linear-gradient-9" x1="322.4" y1="880.28" x2="2375" y2="880.28" gradientUnits="userSpaceOnUse">
      <stop offset="0" stop-color="#fe3371"/>
      <stop offset=".57" stop-color="#fe3371"/>
      <stop offset=".87" stop-color="#fd2064"/>
      <stop offset=".99" stop-color="#fd2064"/>
    </linearGradient>
    <linearGradient id="linear-gradient-10" x1="179.17" y1="792.61" x2="266" y2="792.61" gradientUnits="userSpaceOnUse">
      <stop offset="0" stop-color="#ffb3cf"/>
      <stop offset=".41" stop-color="#fea9c8"/>
      <stop offset="1" stop-color="#fc94ba"/>
    </linearGradient>
    <linearGradient id="linear-gradient-11" x1="196.1" y1="606.46" x2="266" y2="606.46" gradientUnits="userSpaceOnUse">
      <stop offset="0" stop-color="#ffb3cf"/>
      <stop offset=".41" stop-color="#fea9c8"/>
      <stop offset=".99" stop-color="#fc94ba"/>
    </linearGradient>
    <linearGradient id="linear-gradient-12" x1="421.91" y1="710.26" x2="497" y2="710.26" gradientUnits="userSpaceOnUse">
      <stop offset="0" stop-color="#ffb3cf"/>
      <stop offset=".41" stop-color="#fea9c8"/>
      <stop offset="1" stop-color="#fc94ba"/>
    </linearGradient>
    <linearGradient id="linear-gradient-13" x1="1376.62" y1="760.57" x2="1687.93" y2="760.57" gradientUnits="userSpaceOnUse">
      <stop offset="0" stop-color="#7699e2"/>
      <stop offset=".47" stop-color="#7699e2"/>
      <stop offset=".87" stop-color="#768de2"/>
      <stop offset=".99" stop-color="#7683e2"/>
    </linearGradient>
    <linearGradient id="linear-gradient-14" x1="1376.12" y1="760.57" x2="1688.43" y2="760.57" gradientUnits="userSpaceOnUse">
      <stop offset="0" stop-color="#768de2"/>
      <stop offset=".19" stop-color="#7b83e3"/>
      <stop offset=".26" stop-color="#7e7fe4"/>
      <stop offset=".99" stop-color="#7677e2"/>
    </linearGradient>
    <linearGradient id="linear-gradient-15" x1="1341.48" y1="633.13" x2="1558.28" y2="633.13" gradientUnits="userSpaceOnUse">
      <stop offset="0" stop-color="#fff"/>
      <stop offset="1" stop-color="#ececec"/>
    </linearGradient>
    <radialGradient id="radial-gradient" cx="907.72" cy="1769.51" fx="916.12" fy="1769.51" r="28.34" gradientTransform="translate(539.01 2402.4) scale(1 -1)" gradientUnits="userSpaceOnUse">
      <stop offset=".1" stop-color="#ff3c78"/>
      <stop offset=".29" stop-color="#fe3271"/>
      <stop offset=".66" stop-color="#fd2467"/>
      <stop offset=".98" stop-color="#fd2064"/>
    </radialGradient>
    <linearGradient id="linear-gradient-16" x1="1450.11" y1="693.59" x2="1641.91" y2="608.66" gradientUnits="userSpaceOnUse">
      <stop offset=".24" stop-color="#0075be"/>
      <stop offset=".59" stop-color="#0075be"/>
      <stop offset=".99" stop-color="#005b97"/>
    </linearGradient>
    <linearGradient id="linear-gradient-17" x1="1457.56" y1="656.61" x2="1670.11" y2="656.61" gradientUnits="userSpaceOnUse">
      <stop offset="0" stop-color="#0073b8"/>
      <stop offset=".52" stop-color="#006dbc"/>
      <stop offset=".99" stop-color="#005797"/>
    </linearGradient>
    <linearGradient id="linear-gradient-18" x1="1498.33" y1="524.38" x2="1774.45" y2="524.38" gradientTransform="translate(-11.33 38.05) rotate(-1.33)" gradientUnits="userSpaceOnUse">
      <stop offset="0" stop-color="#ff9e28"/>
      <stop offset=".57" stop-color="#f97c28"/>
      <stop offset=".87" stop-color="#f97c28"/>
      <stop offset=".99" stop-color="#f97c28"/>
    </linearGradient>
    <linearGradient id="linear-gradient-19" x1="1496.62" y1="525.39" x2="1774.85" y2="525.39" gradientUnits="userSpaceOnUse">
      <stop offset="0" stop-color="#ff9628"/>
      <stop offset=".19" stop-color="#ff8e1e"/>
      <stop offset=".5" stop-color="#ff7b05"/>
      <stop offset=".55" stop-color="#ff7800"/>
      <stop offset=".87" stop-color="#f97c28"/>
      <stop offset=".99" stop-color="#f97c00"/>
    </linearGradient>
  </defs>
  <g id="Layer_17">
    <path class="cls-33" d="M2026.73,277.5c-17.17-.21-34.31-2.99-50.73-8.22-21.91-6.98-44.73-18.41-66.64-11.59-7.29,2.27-13.91,6.48-21.23,8.66-17.74,5.29-38.35-1.59-54.39,7.81-4.47,2.62-8.61,7.42-7.58,12.61,1.34,6.73,9.65,8.63,16.29,9.13,21.49,1.59,42.98,3.19,64.48,4.78,6.31.47,12.73.93,18.9-.51,6.65-1.55,12.67-5.24,19.29-6.91,9.62-2.42,19.69-.42,29.54.78,15.51,1.88,31.24,1.73,46.7-.45,3.43-.48,6.97-1.12,9.79-3.17,2.82-2.05,4.69-5.93,3.44-9.26-1.12-3.12-6.82-3.87-9.65-3.29"/>
  </g>
  <g id="Layer_11">
    <path class="cls-3" d="M1955.1,349.04c1.93,0,1.93-3,0-3s-1.93,3,0,3h0Z"/>
  </g>
  <g id="Layer_6">
    <path class="cls-31" d="M1642.98,697.75c3.26,6.36,7,12.46,11.21,18.24.48.65,1.3.98,2.05.54.65-.38,1.02-1.39.54-2.05-4.2-5.78-7.95-11.88-11.21-18.24-.88-1.72-3.47-.2-2.59,1.51h0Z"/>
  </g>
  <g id="Layer_14">
    <g class="cls-34">
      <rect class="cls-4" x="0" y="-14" width="2080" height="1168"/>
      <path class="cls-12" d="M1283.43,276.71c1.93,0,1.93-3,0-3s-1.93,3,0,3h0Z"/>
      <path class="cls-10" d="M467.31,304.9c-12.43-.61-24.84-3.78-36.73-9.38-15.86-7.48-32.38-19.43-48.25-13.11-5.28,2.1-10.07,6.16-15.37,8.17-12.84,4.88-27.76-2.47-39.38,6.56-3.23,2.51-6.24,7.21-5.49,12.43.97,6.75,6.99,8.85,11.8,9.5,15.56,2.08,31.12,4.17,46.68,6.25,4.57.61,9.22,1.22,13.68-.08,4.81-1.4,9.17-4.95,13.97-6.46,6.96-2.2,14.26.03,21.38,1.45,11.23,2.24,22.62,2.45,33.81.62,2.48-.41,5.05-.96,7.09-2.95s3.39-5.82,2.49-9.18c-.81-3.14-4.94-4.02-6.99-3.51"/>
      <path class="cls-13" d="M922.05,275.53c-12.41-.08-24.76-1.41-36.54-3.95-15.72-3.38-32.02-8.95-47.98-5.57-5.31,1.13-10.18,3.2-15.51,4.28-12.92,2.62-27.7-.72-39.47,3.92-3.28,1.29-6.36,3.65-5.71,6.19.85,3.29,6.82,4.22,11.62,4.45,15.51.75,31.03,1.49,46.54,2.24,4.56.22,9.19.43,13.68-.28,4.84-.77,9.26-2.59,14.07-3.42,7-1.2,14.25-.24,21.35.33,11.18.9,22.56.8,33.78-.3,2.49-.24,5.06-.56,7.14-1.57s3.49-2.91,2.65-4.54c-.75-1.53-4.86-1.89-6.92-1.6"/>
      <path class="cls-26" d="M1714.05,151.53c-12.41-.08-24.76-1.41-36.54-3.95-15.72-3.38-32.02-8.95-47.98-5.57-5.31,1.13-10.18,3.2-15.51,4.28-12.92,2.62-27.7-.72-39.47,3.92-3.28,1.29-6.36,3.65-5.71,6.19.85,3.29,6.82,4.22,11.62,4.45,15.51.75,31.03,1.49,46.54,2.24,4.56.22,9.19.43,13.68-.28,4.84-.77,9.26-2.59,14.07-3.42,7-1.2,14.25-.24,21.35.33,11.18.9,22.56.8,33.78-.3,2.49-.24,5.06-.56,7.14-1.57s3.49-2.91,2.65-4.54c-.75-1.53-4.86-1.89-6.92-1.6"/>
      <path class="cls-20" d="M545.24,161.5c17.17-.21,34.31-2.99,50.73-8.22,21.91-6.98,44.73-18.41,66.64-11.59,7.29,2.27,13.91,6.48,21.23,8.66,17.74,5.29,38.35-1.59,54.39,7.81,4.47,2.62,8.61,7.42,7.58,12.61-1.34,6.73-9.65,8.63-16.29,9.13-21.49,1.59-42.98,3.19-64.48,4.78-6.31.47-12.73.93-18.9-.51-6.65-1.55-12.67-5.24-19.29-6.91-9.62-2.42-19.69-.42-29.54.78-15.51,1.88-31.24,1.73-46.7-.45-3.43-.48-6.97-1.12-9.79-3.17-2.82-2.05-4.69-5.93-3.44-9.26,1.12-3.12,6.82-3.87,9.65-3.29"/>
      <rect class="cls-9" x="73" width="1935" height="1110"/>
      <path class="cls-31" d="M1555.29,734.87c1.02,7.23-.21,14.52-2.38,21.42-1.1,3.5-2.44,6.93-3.9,10.29-.74,1.71-1.51,3.41-2.3,5.1-.36.77-.72,1.54-1.08,2.31-.2.42-.4.83-.59,1.25-.1.21-.2.42-.3.62-.45.67-.06,1.23,1.18,1.66l-.9.69.16-.06c1.8-.66,1.02-3.56-.8-2.89s-1.78,3.13.06,3.74c2.22.73,3.18-2.27,3.87-3.71,2.05-4.33,4.03-8.7,5.73-13.18,3.4-8.97,5.48-18.45,4.13-28.06-.27-1.9-3.16-1.09-2.89.8h0Z"/>
      <path class="cls-14" d="M.22,592.22l-11.56-4.77c54.39-4.08,109.41.47,162.38,13.43,83.34,20.39,160.54,61.11,243.63,82.49,41.64,10.71,84.36,16.47,126.71,23.93,100.03,17.64,198.35,44.96,293.15,81.45,42.8,16.48,85.89,35.47,118.92,67.29s54.55,79.08,44.59,123.85c-7.46,33.51-31.16,61.21-57.74,82.93-51.51,42.08-115.11,66.32-178.59,86.19-139.24,43.59-284.14,69.55-429.94,74.79-48.36,1.74-97.47,1.12-144.13-11.72-42.67-11.74-81.91-33.32-119.86-56.09-73.9-44.33-146.54-95.79-193.33-168.17-29.69-45.93-47.89-99.22-52.49-153.72-1.92-22.77-1.41-46.25,6.53-67.67,6.28-16.92,16.92-31.83,27.9-46.15,45.43-59.24,102.43-114.43,174.54-133.75"/>
      <path class="cls-21" d="M2139.13,570.26c-258.88-26.86-523.67,4.94-768.82,92.33-108.98,38.85-214.47,88.61-326.88,115.99-108.85,26.52-221.62,31.42-332.57,46.95-110.95,15.52-223.58,43.16-314.51,108.6-41.07,29.56-79.78,74.25-73.21,124.42,4.45,33.97,29.64,62.47,59.51,79.25,29.87,16.78,64.17,23.62,97.95,29.35,469.15,79.62,948.07-9.16,1423.14-36.53,146.43-8.44,306.72-16.23,415.38-114.75,25.28-22.92,47.33-51.48,53.83-84.98,7.53-38.82-6.71-78.47-24.1-113.99-48.02-98.09-122.44-183.1-213.32-243.67"/>
      <g>
        <path class="cls-5" d="M221.39,736c-15.95,3.57-28.65,18.48-29.64,34.8-.66,10.77,3.24,21.86.1,32.18-1.82,5.99-5.84,11.03-8.88,16.5s-5.14,12.14-2.77,17.94c2.87,7.01,11.09,10.09,18.6,11.15,19.09,2.7,39.21-3.03,54.01-15.39,6.49-5.42,12.21-12.57,13.1-20.98.89-8.41-4.69-17.82-13.1-18.68-1.47-.15-3.02-.06-4.34-.73-2.4-1.23-2.98-4.38-2.9-7.08.18-6.01,2.18-11.84,2.44-17.84.64-15.03-11.34-29.57-26.22-31.81"/>
        <line class="cls-15" x1="222.73" y1="776.78" x2="222.73" y2="877.22"/>
      </g>
      <g>
        <path class="cls-23" d="M228.06,570.75c-8.07-2.39-17.48,4.31-17.85,12.72-.27,6.05,3.39,11.97,2.23,17.92-1.91,9.81-15.72,14.39-16.32,24.36-.29,4.79,2.87,9.29,6.94,11.83s8.93,3.48,13.68,4.12c13.03,1.76,26.93,1.55,38.5-4.68,5.6-3.02,10.87-8.23,10.75-14.59-.08-4.66-3.1-8.83-6.79-11.67s-8.05-4.64-12.18-6.79c-1.22-.64-2.49-1.36-3.19-2.55-1.18-1.98-.44-4.48-.05-6.74,1.63-9.49-4.45-19.71-13.57-22.8"/>
        <line class="cls-17" x1="230.15" y1="606.22" x2="230.15" y2="664.96"/>
      </g>
      <g>
        <path class="cls-6" d="M470.16,679.8c-10.41-2.69-21.73-1.7-31.51,2.76-3.81,1.74-7.48,4.06-9.97,7.43s-3.65,7.92-2.21,11.86c.84,2.3,2.5,4.27,3.07,6.66,1.82,7.63-7.93,13.83-7.61,21.66.17,4.14,3.29,7.72,7.01,9.54,3.72,1.83,7.97,2.21,12.11,2.38,11.34.48,22.74-.37,33.89-2.53,6.54-1.27,13.35-3.18,17.95-7.99s5.9-13.35,1.07-17.93c-4.35-4.13-12.31-4.2-14.75-9.68-2.01-4.51,1.21-9.82.1-14.63-.74-3.18-3.23-5.61-5.62-7.84-1.8-1.69-5.63-2.47-8.81-2.7"/>
        <line class="cls-16" x1="455.83" y1="712.7" x2="455.83" y2="766.43"/>
      </g>
      <g class="cls-28">
        <path d="M456.03,766.99c4.88,18.65,23.67,23.47,34.09,27.58,1.83.72,3.14,2.69,5.29,3.19,3.58.83,9.14,2,12.73,2.39,7.12.76,8.3-.16,13.64-.6,2.55-.21,4.38-1.42,5.95-2.67,4.09-3.27,7.26-7.11,9.37-11.34,2.28-4.58,2.43-11.07-4.23-14.65-5.57-2.99-13.39-2.37-18.48-5.78-3.89-2.6-4.72-6.67-8.7-9.2-2.83-1.8-6.72-2.41-10.02-2.15s-6.13,1.27-8.9,2.27c-10.28,3.69-20.55,7.38-30.83,11.07,1.96,2,4.56,3.76,7.5,5.06"/>
      </g>
      <g class="cls-28">
        <path d="M228.78,664.94c2.19,20.07,19.37,28.21,29.55,32.4,1.81.75,2.69,3.13,4.75,3.95,3.41,1.36,8.73,3.36,12.23,4.28,6.92,1.82,8.23,1.09,13.57,1.46,2.55.18,4.55-.74,6.28-1.74,4.53-2.61,8.25-5.93,10.97-9.8,2.94-4.18,4.07-10.58-1.98-15.12-5.06-3.8-12.88-4.36-17.4-8.5-3.45-3.16-3.66-7.31-7.22-10.41-2.53-2.21-6.28-3.39-9.58-3.63s-6.25.33-9.14.9c-10.71,2.1-21.43,4.2-32.14,6.31"/>
      </g>
      <g class="cls-28">
        <path d="M218.81,874.91c3.19,21.09,34.86,27.32,47.32,38.28,2.05,1.8,4.35,3.73,7.34,4.43,4.97,1.16,12.69,2.78,17.67,3.31,9.88,1.05,11.52-.23,18.93-.84,3.54-.29,6.09-1.97,8.25-3.7,5.68-4.53,10.08-9.86,13.01-15.74,3.16-6.35,3.37-15.36-5.88-20.33-7.74-4.16-18.59-3.29-25.66-8.03-5.4-3.62-6.55-9.26-12.08-12.78-3.93-2.5-9.33-3.34-13.9-2.98s-8.5,1.76-12.35,3.14c-14.26,5.12-28.53,10.25-42.79,15.37"/>
      </g>
      <path class="cls-25" d="M106.59,696.28c1.93,0,1.93-3,0-3s-1.93,3,0,3h0Z"/>
      <g class="cls-7">
        <path d="M1438.88,820.06c59.86,22.57,119.71,45.13,179.57,67.7,33.25,12.53,66.95,25.21,103.25,33.61,36.3,8.4,76.08,12.19,107.3,6.13,16.39-3.18,29.65-8.87,41.78-14.99,27.84-14.05,51.26-31.24,57.93-52.69,6.67-21.45-5.89-47.73-39.91-66.71-11.62-6.48-25.68-12.18-33.71-19.76-9.63-9.08-8.56-18.85-12.23-28.36-4.54-11.78-16.99-23.71-34.57-33.14-10.24-5.5-22.34-10.21-35.32-12.97-23.46-4.99-47.07-3.17-67.55.3-20.48,3.47-68.11-14.98-90.4-13.66-23.23,1.37-19.97,22.08-44.41,21.01-32.33-1.42-63.42.12-94.33,1.66-3.95.2-8.06.42-10.96,1.58-2.59,1.03-3.95,2.69-5.21,4.31-17.4,22.31-30.11,46.08-37.91,70.86-2.03,6.46-3.72,13.15-.95,20.17,2.77,7.01,5.17,10.72,17.63,14.88"/>
      </g>
      <g>
        <path class="cls-2" d="M1586.46,693.54c20.56,6.3,43.52-4.02,56.87-25.54,12.26,27.71,24.37,55.53,36.34,83.45,4.63,10.8,9.4,22.66,8.02,34.93-1.08,9.57-5.79,17.74-10.98,24.58-17.51,23.07-41.82,35.64-66.37,40.06-24.54,4.42-49.51,1.27-74.02-3.45-23.17-4.46-46.19-10.32-68.96-17.56-27.62-8.78-55.25-19.8-79.31-39.69-6.44-5.33-13.41-14.27-10.9-23.73,1.2-4.52,4.31-7.61,7.31-10.32,32.69-29.54,71.52-47.18,111.1-50.49,4.99-.42,10.49-.4,14.36,3.78,2.32,2.51,3.77,6.27,6.28,8.43,4.35,3.76,10.12,1.51,15.01-.84,15.43-7.43,30.86-14.86,46.29-22.29"/>
        <path class="cls-18" d="M1586.06,694.99c17.25,5.19,35.42-1.14,48.14-13.3,4.01-3.84,7.48-8.23,10.42-12.93h-2.59c10.61,24,21.11,48.04,31.48,72.14,4.86,11.28,10.77,22.79,12.5,35.09.84,5.99.4,12.04-1.49,17.79-1.71,5.21-4.48,10.02-7.66,14.46-12.4,17.33-30.42,30.28-50.54,37.12-23.14,7.86-48,7.32-71.9,3.81-25.46-3.74-50.7-9.81-75.35-17.13-22.31-6.62-44.55-14.24-64.9-25.7-5.1-2.87-10.07-5.98-14.87-9.33-4.65-3.25-9.41-6.64-13.4-10.69-3.63-3.69-6.86-8.32-7.62-13.56-.81-5.61,1.83-10.25,5.75-14.02,8.25-7.94,17.57-14.97,27.12-21.26,9.33-6.15,19.17-11.54,29.41-16.03,9.98-4.37,20.36-7.84,30.97-10.33,5.32-1.25,10.7-2.25,16.11-2.97,4.85-.65,10.28-1.67,15.14-.75,2.51.48,4.73,1.62,6.41,3.58,1.69,1.97,2.8,4.36,4.4,6.39,3.31,4.19,8.21,4.84,13.1,3.29,2.61-.83,5.07-2.09,7.53-3.28,2.97-1.43,5.95-2.86,8.92-4.3,5.95-2.86,11.9-5.73,17.84-8.59,5.76-2.78,11.52-5.55,17.29-8.33,1.74-.84.22-3.43-1.51-2.59-12.27,5.91-24.54,11.82-36.8,17.73-3.07,1.48-6.13,2.96-9.2,4.43-2.43,1.17-4.98,2.36-7.69,2.7s-4.99-.46-6.76-2.46-2.97-4.62-4.7-6.75c-3.24-3.99-8.19-5.2-13.13-5.09-5.32.12-10.69.92-15.94,1.76-10.88,1.75-21.59,4.57-31.95,8.33-21.75,7.89-41.87,19.82-59.69,34.53-4.23,3.49-8.89,7.03-12.2,11.44-3.26,4.34-4.3,9.79-2.97,15.05,2.75,10.83,12.99,17.97,21.6,24.04,19.32,13.62,41.27,22.83,63.61,30.23,24.82,8.22,50.2,14.78,75.88,19.68,25.45,4.86,51.9,8.04,77.53,2.57,20.72-4.42,40.07-14.67,54.9-29.85,7.65-7.83,14.86-17.04,18.25-27.58,3.86-12.01,1.16-24.34-3.28-35.77-4.74-12.19-10.23-24.12-15.43-36.12-5.38-12.41-10.79-24.81-16.23-37.2-2.64-6-5.28-12-7.93-17.99-.48-1.09-2.05-.86-2.59,0-9.02,14.43-24.15,25.91-41.64,26.59-4.59.18-9.13-.42-13.53-1.74-1.85-.56-2.64,2.34-.8,2.89h0Z"/>
      </g>
      <g class="cls-35">
        <path class="cls-31" d="M1552.16,729.91c-2.74,11.71-6.64,23.12-11.69,34.04-.8,1.74,1.78,3.27,2.59,1.51,5.15-11.16,9.18-22.79,11.99-34.76.44-1.88-2.45-2.68-2.89-.8h0Z"/>
      </g>
      <path class="cls-27" d="M1611.65,701.73l-144.83,73.18c-1.51.76-3.29.77-4.81.03l-51.13-25.09c-4.03-1.98-4.03-7.72,0-9.69l148.66-72.95c1.55-.76,3.36-.73,4.89.07l47.3,24.85c3.89,2.04,3.84,7.62-.08,9.6Z"/>
      <g>
        <path class="cls-22" d="M1557.47,668.96l-153.47,62.86c-5.82,2.38-12.54,0-15.42-5.49l-54.15-102.96c-3.2-6.09-.45-13.56,6-16.25l146.24-61.02c5.57-2.33,12.05-.26,15.14,4.83l61.38,101.13c3.74,6.16,1.04,14.14-5.72,16.91Z"/>
        <path class="cls-29" d="M1557.8,664.75l-151.77,62.16c-6.25,2.56-13.46,0-16.55-5.9l-53.34-101.42c-3.44-6.54-.48-14.56,6.44-17.45l144.65-60.36c5.98-2.5,12.93-.28,16.25,5.19l60.47,99.62c4.02,6.62,1.12,15.18-6.14,18.15Z"/>
        <path class="cls-22" d="M1612.06,700.04l-154.65,71.32c-1.93.89-4.18.85-6.08-.1l-47.52-23.86c-2.66-1.34-3.89-3.92-3.72-6.42.16-2.38,1.58-4.68,4.2-5.75l160.43-65.73c1.76-.72,3.74-.7,5.47.07l41.74,18.28c5.36,2.35,5.44,9.76.12,12.21Z"/>
        <path class="cls-29" d="M1611.19,696l-154.36,71.18c-1.97.91-4.25.87-6.19-.1l-47.24-23.72c-5.29-2.66-4.99-10.14.49-12.39l160.14-65.61c1.79-.73,3.8-.71,5.57.07l41.45,18.15c5.46,2.39,5.53,9.93.12,12.42Z"/>
        <path class="cls-1" d="M1552.57,656.92l-148.39,60.66c-4.38,1.79-9.36.18-11.42-3.71l-50.36-94.63c-2.3-4.32-.12-9.7,4.73-11.72l141.35-58.81c4.2-1.75,9-.36,11.23,3.24l57.39,92.78c2.7,4.36.56,10.11-4.54,12.19Z"/>
        <path class="cls-22" d="M1587.02,684.98l-155.63,66.43c-.88.38-1.88.35-2.74-.08l-22.26-11.13c-2.5-1.25-2.37-4.86.21-5.93l156.12-64.73c.82-.34,1.74-.33,2.55.02l21.77,9.43c2.63,1.14,2.62,4.87-.02,6Z"/>
      </g>
      <g>
        <path class="cls-37" d="M1471.67,736.75c3.06-5.42,4.56-12.54,6.81-18.8.77-2.14.04-4.34-1.63-5.11-2.43-1.12-5.42-1.58-7.73-2.1-3.57-.8-7.7-.78-11.7.45-6.22,1.92-3.37,8.01-2.73,12.67.34,2.44-.2,6,.31,8.17.61,2.61,2.24,2.77,4.45,3.28s4.24.76,6.34,1.23c1.03.23,1.9.7,2.92.96.78.21,2.55-.07,1.83.4"/>
        <path class="cls-8" d="M1472.96,737.51c1.69-3.05,2.87-6.34,3.93-9.65.53-1.66,1.03-3.33,1.55-5,.54-1.73,1.32-3.48,1.69-5.26.3-1.42.14-2.96-.6-4.23-.84-1.44-2.29-2.05-3.8-2.57-3.02-1.03-6.43-1.74-9.61-2.01-3.46-.3-7.59,0-10.72,1.62-2.2,1.14-3.32,3.28-3.42,5.71-.09,2.3.59,4.57,1.03,6.8.57,2.95-.04,5.95.43,8.9.23,1.47.86,2.89,2.12,3.75,1.15.78,2.61,1.02,3.95,1.31,2.09.45,4.26.65,6.32,1.24.92.26,1.78.72,2.73.9.31.06.64.08.95.09.19,0,.37,0,.56.01.48.05.34-.06-.41-.32l-.39-1.46.22-.47c-1.5,1.22.63,3.33,2.12,2.12.29-.24.43-.51.55-.85.17-.46,0-1.14-.39-1.46-.83-.71-1.68-.43-2.66-.6-.71-.12-1.39-.5-2.07-.72-.87-.28-1.76-.44-2.66-.61-1.51-.28-3.03-.53-4.53-.87-.84-.19-1.98-.27-2.67-.82-.76-.61-.84-1.78-.89-2.68-.08-1.43.02-2.87.01-4.31,0-2.27-.52-4.41-.96-6.62-.32-1.6-.78-3.7.13-5.19,1.25-2.07,4.91-2.34,7.04-2.49,3.1-.22,6.02.38,9.03,1.04,2.2.48,6.22.89,5.7,4.01-.27,1.62-1.07,3.27-1.56,4.84-.52,1.67-1.02,3.34-1.55,5-1.01,3.21-2.12,6.39-3.75,9.35-.94,1.69,1.65,3.2,2.59,1.51h0Z"/>
      </g>
      <g>
        <g>
          <path class="cls-32" d="M1491.91,634.1c-2.19-2.26-4.68-4.37-6.27-7.13-.68-1.18-1.2-2.52-1.25-3.89-.04-1.21.21-2.27.56-3.49,1.53-5.31,4.79-10.15,4.93-15.81.06-2.26-.42-4.58-1.91-6.33-1.41-1.66-3.58-2.35-5.69-2.51-2.37-.17-4.78.23-6.96,1.14-2.36.98-4.64,2.15-6.97,3.21-.22.1-.43.2-.65.29-.1.04-.2.09-.31.13.21-.09-.07.02-.13.05-.6.24-1.23.41-1.87.52-1.37.22-2.79.05-4.09-.41-1.3-.46-2.46-1.25-3.4-2.25-1.05-1.11-1.66-2.53-2.55-3.76-3.05-4.2-7.85-7.28-13.11-7.57-6.1-.34-10.85,5.05-13.23,10.11-.74,1.58-1.28,3.23-1.6,4.95-.28,1.51-.41,3.05-.59,4.57-.34,2.88-1.16,5.84-3.25,7.98-1.79,1.83-4.43,3.03-6.83,3.35-.63.08-1.64.16-2.4.26-.93.11-1.87.24-2.8.37-1.6.24-3.2.54-4.78.92-2.48.59-4.95,1.38-7.22,2.56-1.65.86-3.25,1.98-4.42,3.45-1.79,2.25-2.42,5.18-1.72,7.98.64,2.6,2.75,4.39,4.98,5.69,1.94,1.13,4.05,1.98,6.16,2.74,3.16,1.14,6.39,2.05,9.64,2.88,2.27.58,4.76,1.13,6.51,2.63,1,.86,1.54,1.81,1.49,3.2-.07,1.75-.96,3.48-1.82,4.97-3.22,5.59-8.9,10.59-8.44,17.62.22,3.35,2.14,6.33,5.12,7.91,3.08,1.63,6.75,1.67,10.03.66,3.28-1,6.3-3.04,8.98-5.27,2.95-2.45,5.67-5.16,8.4-7.85,5.25-5.17,10.6-10.4,17.27-13.72,3.08-1.53,6.43-2.61,9.87-2.88,4.02-.32,8.02.38,12.01.75,1.92.18,3.88.36,5.79.01,1.73-.32,3.37-1.1,4.69-2.27,2.4-2.13,3.18-5.26,2.37-8.33-.75-2.83-2.54-5.36-4.55-7.45-.9-.94-2.33.49-1.43,1.43,1.92,2,3.65,4.44,4.18,7.21.23,1.19.16,2.49-.38,3.61-.66,1.37-1.8,2.43-3.15,3.11-1.49.75-3.12.91-4.77.84-1.97-.08-3.93-.31-5.89-.53-3.88-.44-7.74-.76-11.61-.06-6.93,1.26-13.06,5.25-18.33,9.78-5.69,4.9-10.61,10.66-16.46,15.37-2.56,2.06-5.44,3.87-8.68,4.59-2.99.66-6.44.29-8.83-1.79-2.39-2.08-3-4.88-2.44-7.77.61-3.11,2.28-5.78,4.1-8.31,2.04-2.83,4.24-5.62,5.43-8.94.61-1.71.82-3.6.06-5.29-.53-1.19-1.53-2.11-2.6-2.81-2.14-1.4-4.68-1.94-7.12-2.58-3.14-.82-6.28-1.72-9.33-2.84-1.94-.71-3.75-1.47-5.57-2.57-.33-.2-.66-.41-.98-.64-.08-.05-.15-.11-.23-.16-.03-.02-.24-.18-.11-.09s-.08-.06-.11-.09c-.07-.06-.15-.12-.22-.18-.23-.2-.46-.41-.68-.63-.1-.1-.19-.2-.28-.31-.07-.08-.36-.47-.16-.18-.29-.41-.52-.82-.75-1.27-.07-.14.09.26.02.06-.02-.05-.04-.1-.06-.14-.04-.11-.08-.22-.11-.33-.07-.22-.12-.44-.17-.67-.02-.1-.03-.2-.05-.29-.03-.17,0-.09,0,.06,0-.06-.02-.13-.02-.19-.02-.22-.04-.44-.05-.66-.02-.33-.01-.67,0-1.01,0-.08.01-.16.02-.24,0-.07.05-.37,0-.07.03-.18.06-.36.1-.54.07-.35.18-.69.3-1.02.03-.08.06-.15.09-.22-.1.26,0-.01.04-.08.08-.17.16-.34.25-.5.18-.33.39-.64.61-.94.08-.11-.11.14-.02.03.03-.04.06-.08.09-.12.06-.07.11-.14.17-.2.13-.15.28-.31.42-.46.3-.3.61-.58.94-.85.04-.04.09-.07.13-.11.12-.09-.12.09,0,0,.08-.06.16-.12.25-.18.2-.14.39-.28.59-.41.87-.56,1.79-1.03,2.74-1.45s2.26-.86,3.39-1.19c1.39-.41,2.81-.73,4.23-1.01,1.63-.31,3.27-.56,4.91-.75,1.42-.17,2.86-.24,4.24-.61,2.82-.75,5.47-2.32,7.25-4.66,1.91-2.5,2.61-5.53,2.95-8.6.16-1.41.29-2.81.57-4.2.34-1.67.89-3.28,1.68-4.79,1.45-2.76,3.47-5.45,6.17-7.09,1.84-1.11,3.68-1.46,5.81-1.19-.21-.03.13.02.19.03.13.02.25.04.37.07.26.05.52.11.77.17.53.13,1.05.29,1.56.47,1.06.38,2.11.9,3.13,1.55,2.45,1.56,4.33,3.74,5.76,6.24,1.5,2.62,4.09,4.61,7.06,5.24,1.5.32,3.04.31,4.54-.03,1.05-.24,2.04-.7,3.02-1.15,1.12-.52,2.23-1.05,3.34-1.58.59-.28,1.18-.55,1.77-.82.27-.12.54-.24.81-.36.32-.14.39-.17.67-.29,2.05-.83,4.29-1.16,6.5-.94.33.03.9.14,1.38.28.23.07.45.14.67.23.18.07.05.02.01,0,.06.02.11.05.16.08.11.05.21.11.32.16.19.11.38.22.56.35.05.03.09.07.14.1.12.09-.12-.1,0,0,.1.08.2.17.29.25.15.14.28.28.41.43.04.04.07.09.11.13-.02-.03-.11-.15,0,0,.07.09.13.19.2.29.13.2.24.41.35.62.02.04.13.29.1.21-.02-.04.09.24.12.31.17.48.28.99.36,1.49,0,.02,0,.06.02.2s.03.29.04.44c.02.3.03.61.03.91,0,.64-.05,1.29-.13,1.93-.32,2.51-1.36,4.88-2.32,7.21-1.07,2.6-2.25,5.23-2.8,8-.25,1.28-.32,2.52-.09,3.8.28,1.52.94,2.97,1.78,4.25,1.69,2.59,4.02,4.65,6.16,6.85.91.93,2.33-.49,1.43-1.43h.01Z"/>
          <path class="cls-32" d="M1455.43,634.23c-.62.2-1.26.37-1.9.5-.29.06-.58.11-.87.15,0,0-.29.04-.14.02s-.14.02-.14.02c-.18.02-.36.04-.54.06-.58.05-1.17.07-1.76.06-.27,0-.54-.02-.81-.04-.13,0-.25-.02-.37-.03-.08,0-.16-.02-.25-.03.18.02.04,0-.06,0-.52-.08-1.04-.19-1.55-.33-.24-.07-.48-.15-.72-.23-.11-.04-.21-.08-.31-.12-.06-.02-.22-.06,0,0-.07-.02-.14-.06-.2-.09-.43-.2-.84-.43-1.23-.69-.07-.05-.23-.12-.28-.2.08.14.11.09.02.01-.04-.04-.09-.07-.13-.11-.18-.15-.35-.31-.51-.47-.03-.03-.41-.46-.4-.46.01,0,.14.19.02.02-.03-.04-.06-.09-.09-.13-.07-.11-.14-.22-.21-.33-.1-.17-.18-.34-.27-.51-.1-.2.08.22,0,0-.02-.04-.03-.08-.05-.12-.04-.12-.09-.24-.12-.36-.05-.18-.1-.37-.13-.56,0-.05-.02-.1-.02-.15-.03-.17.01.07.01.09,0-.11-.02-.24-.03-.36-.01-.19-.01-.38,0-.57,0-.1.01-.2.02-.3,0-.05.01-.1.02-.15.02-.22-.04.24,0,.02.07-.41.17-.82.31-1.22.04-.1.08-.2.11-.3.08-.21-.08.16-.01.03.02-.05.04-.1.07-.15.09-.2.19-.4.3-.6.23-.42.51-.8.78-1.19.09-.13-.15.19,0,0,.03-.04.06-.08.09-.11.08-.09.15-.19.24-.28.18-.21.37-.41.56-.6.37-.37.75-.71,1.16-1.04.04-.03.08-.07.13-.1-.19.15.02-.02.05-.04.1-.07.2-.15.29-.22.24-.17.48-.33.72-.48.48-.3.98-.58,1.48-.83.26-.13.53-.25.79-.37.05-.02.11-.05.16-.07-.18.08,0,0,.05-.02.15-.06.31-.12.46-.18,1.19-.44,2.42-.77,3.68-.96.05,0,.26-.04.05,0,.06,0,.12-.02.18-.02.15-.02.3-.03.45-.05.33-.03.65-.05.98-.06.57-.02,1.14,0,1.71.04.14.01.28.02.41.04.05,0,.11.01.16.02-.23-.03-.04,0,.02,0,.28.04.55.09.83.15.5.11,1,.25,1.48.42.12.04.23.09.35.13.17.07-.01,0-.04-.02.07.02.14.06.2.09.22.1.43.21.64.33s.4.24.59.37c.07.05.24.12.28.2,0-.01-.19-.15-.04-.03.06.05.12.1.18.15.16.13.31.28.46.43.08.08.15.16.22.24.03.03.06.07.09.1.03.03.06.07.08.1t0,0l-.04-.05s.05.07.08.1c.02.04.05.07.07.11.06.09.12.18.17.27s.11.18.16.28c.02.04.14.34.17.35,0,0-.09-.24-.03-.06.02.05.04.1.06.15.03.09.06.18.09.27.07.21.12.43.16.65,0,.04.01.08.02.12.04.22-.02-.25,0-.03,0,.09.02.18.02.27.01.21.02.42,0,.64,0,.1-.01.2-.02.3,0,.04,0,.08-.01.12-.02.22.04-.25,0-.02-.04.2-.07.41-.13.61s-.11.41-.18.61c-.04.1-.08.2-.11.3-.05.15.02-.07.03-.06,0,0-.07.16-.08.18-.19.42-.42.83-.67,1.21-.12.19-.25.37-.39.55-.14.19.1-.12,0,0-.04.04-.07.09-.11.14-.09.1-.17.21-.26.31-.34.39-.71.76-1.09,1.1-.18.16-.35.31-.54.46-.06.05-.13.1-.19.15.16-.13.05-.04.01-.01-.13.1-.26.19-.39.29-.93.66-1.92,1.21-2.96,1.67,0,0-.26.11-.12.05s-.13.05-.13.05c-.14.06-.28.11-.42.16-.29.11-.57.2-.86.3-.5.16-.88.71-.7,1.24.16.5.7.88,1.24.7,2.43-.78,4.72-2.01,6.6-3.74,1.52-1.4,2.82-3.21,3.3-5.25.45-1.93.12-4.01-1.09-5.61-1.34-1.77-3.38-2.83-5.52-3.31-2.58-.57-5.29-.41-7.83.26-2.5.66-4.87,1.82-6.88,3.45-1.66,1.35-3.07,3.1-3.76,5.14-.64,1.88-.51,4,.52,5.72,1.12,1.88,3.09,3.07,5.15,3.67,2.45.72,5.09.67,7.57.17.66-.13,1.31-.3,1.95-.51.5-.16.88-.71.7-1.24-.16-.51-.7-.88-1.24-.7h0Z"/>
        </g>
        <path class="cls-11" d="M1477,633.41c-2.12-2.19-4.74-4.34-5.09-7.36-.34-2.94,2.82-8.13,3.36-11.04,1.02-5.48-1.61-7.92-7.14-6.79-1.35.28-5.46,2.46-6.76,2.94-2.87,1.05-6.04-.21-7.56-2.86,0-.02-.02-.03-.02-.04-2.73-4.91-7.42-6.15-9.8-5.93-2.39.22-4.85,2.14-6.7,5.45-2.56,4.56-.85,7.59-3.26,11.38-1.47,2.31-4.24,3.29-5.93,3.45-10.62,1-14.78,4.04-14.63,8.12.1,2.8,1.45,5.16,13.92,8.29,1.4.35,4.47,1.2,5.01,3.37.23.91,0,1.87-.34,2.75-1.02,2.62-3.02,4.73-4.52,7.11-1.77,2.82-2.81,6.62-.28,9.3,1.3,1.38,3.19,2,5.08,1.95,3.42-.1,6.28-2.1,8.79-4.28,3.57-3.11,6.72-6.69,10.36-9.72s7.96-5.52,12.68-5.9c3.37-.27,6.75.56,10.1.63,1.53.03,3.06-.43,4.2-1.46,3.08-2.79.99-6.82-1.47-9.36h0ZM1453.69,633.67c-4.19,1.34-8.3.16-9.19-2.63s1.78-6.14,5.96-7.47c4.19-1.34,8.3-.16,9.19,2.63.89,2.79-1.78,6.14-5.96,7.47h0Z"/>
      </g>
      <g>
        <path class="cls-30" d="M1567.15,529.88c9.54,2.79,20.29.92,28.44-4.75,1.45-1.01,3.49-.61,4.32.95,3.29,6.22,11.39,9.54,18.74,9.54,8.59,0,16.86-3.13,25.4-4.07s18.44,1.07,22.86,8.44c2.51,4.18,2.76,9.3,2.7,14.18-.24,20.46-1.15,40.84-5.6,60.82-4.02,18.03-6.98,36.97-11,55-1.27,5.71-3.51,10.34-5,16-3.02,11.51-13.29,20.13-19,25-20.39,17.39-45.34,26.37-72.01,23.77-1.64-.16-3.35-.43-4.67-1.42-1.52-1.14-2.24-3.03-2.88-4.82-2.74-7.58-5.48-15.15-8.22-22.73-.99-2.73-4.9-2.58-5.66.22-5.96,22.01-14.83,43.22-26.32,62.92-6.22,10.67-16.58,22.31-28.53,19.17-10.67-2.8-14.78-15.47-17.16-26.25-1.1-5-4.92-16.47-5.48-24.01-.08-1.05.68-1.97,1.72-2.15l4.11-.69c.07-.01.14-.03.2-.04l9.66-2.63c.81-.22,1.68.04,2.24.66h0c3.5,3.5,1.98,7.09,1.16,11.41,10.84-49.65,20.28-99.61,28.28-149.8,1.8-11.25,3.76-23.09,10.88-31.98,13.23-16.52,39.54-17.38,53.09-33.64"/>
        <path class="cls-19" d="M1566.75,531.33c9.61,2.74,20.32,1.13,28.71-4.31.74-.48,1.58-1.27,2.52-.81.8.39,1.26,1.74,1.77,2.43,1.32,1.77,2.95,3.25,4.79,4.46,3.72,2.43,8.19,3.7,12.6,3.97,10.78.66,20.95-4.5,31.69-4.23,4.21.11,8.53.99,12.13,3.25,4.14,2.59,6.26,6.83,6.87,11.59.72,5.65.23,11.55.07,17.22-.16,5.95-.43,11.89-.86,17.83-.88,11.93-2.73,23.59-5.23,35.28s-4.58,23.37-6.84,35.06c-1.13,5.84-2.21,11.71-3.63,17.49-1.32,5.36-3.44,10.52-4.99,15.81-2.49,8.5-8.88,15.24-15.37,20.95-7.15,6.3-14.82,11.89-23.32,16.23s-18.42,7.66-28.26,9.16c-4.95.75-9.97,1.06-14.97.97-2.55-.04-5.1-.17-7.63-.45-1.14-.12-2.39-.31-3.37-.96-1.04-.69-1.64-1.88-2.1-3-2.27-5.56-4.11-11.32-6.15-16.97-.54-1.48-1.07-2.96-1.61-4.45-.43-1.19-.74-2.55-1.46-3.61-1.01-1.48-2.84-2.18-4.58-1.83-1.94.38-3.03,1.84-3.54,3.66-.76,2.71-1.52,5.41-2.35,8.09-1.68,5.45-3.54,10.84-5.57,16.16-4.02,10.53-8.74,20.79-14.11,30.7-4.58,8.46-9.6,17.68-17.92,23.03-3.55,2.28-7.76,3.65-12,2.8-3.94-.79-7.21-3.14-9.6-6.32-4.88-6.49-6.17-14.59-8.23-22.23-1.15-4.26-2.38-8.49-3.36-12.8-.5-2.2-.95-4.43-1.19-6.67-.08-.76-.31-1.46.54-1.71.52-.15,1.12-.19,1.65-.28,1.86-.31,3.59-.71,5.41-1.21l4.24-1.16c.83-.23,1.76-.64,2.62-.71,1.5-.14,2.43,2.55,2.55,3.73.22,2.16-.55,4.39-.96,6.48-.37,1.88,2.48,2.69,2.89.8,3.96-18.13,7.73-36.3,11.31-54.52,3.58-18.21,6.98-36.46,10.18-54.74,1.6-9.14,3.16-18.29,4.66-27.45,1.38-8.37,2.44-16.85,4.32-25.13,1.67-7.37,4.26-14.76,9.33-20.52,4.18-4.75,9.58-8.13,15.19-10.94,11.32-5.67,24.07-9.29,33.57-18.03,1.17-1.08,2.27-2.23,3.29-3.45,1.24-1.47-.88-3.6-2.12-2.12-8.45,10.04-21.49,14.1-33,19.45-5.74,2.66-11.36,5.73-16.08,9.98-5.48,4.93-9.06,11.37-11.31,18.33-2.5,7.75-3.52,15.91-4.82,23.92-1.48,9.16-3.01,18.31-4.58,27.46-3.18,18.46-6.55,36.89-10.12,55.28-3.55,18.3-7.29,36.57-11.22,54.8-.49,2.29-.99,4.58-1.49,6.86l2.89.8c.89-4.51,2.25-9.23-1.55-12.87-2.18-2.09-5.17-.65-7.66.03-2.01.55-4.03,1.23-6.08,1.63-1.26.25-2.56.34-3.81.63-2.11.49-3.09,2.2-2.89,4.28.83,8.68,3.88,17.02,5.87,25.46,1.89,8.04,4.7,17.14,11.5,22.42,3.44,2.67,7.83,4.07,12.19,3.66s8.62-2.59,12.15-5.42c8.19-6.57,13.25-16.35,18.02-25.49,5.41-10.36,10.12-21.09,14.11-32.08,2.03-5.58,3.86-11.24,5.5-16.95.36-1.24.58-2.62,1.06-3.81.26-.64.81-1.05,1.53-.98.82.07,1.12.66,1.39,1.35.58,1.46,1.07,2.97,1.61,4.45,2.19,6.06,4.33,12.13,6.57,18.17.84,2.26,1.9,4.56,4.12,5.77,2.27,1.23,5.08,1.25,7.59,1.42,10.44.7,21-.39,31.07-3.19,9.95-2.77,19.43-7.2,28.04-12.88,7.5-4.95,14.82-10.85,20.86-17.53,3.23-3.57,6.11-7.53,8.03-11.96,1.04-2.39,1.64-4.89,2.42-7.37.88-2.78,1.92-5.5,2.82-8.27,1.86-5.74,2.86-11.79,4.04-17.7,1.22-6.14,2.37-12.3,3.53-18.45,1.15-6.05,2.31-12.1,3.57-18.12,1.27-6.05,2.62-12.06,3.56-18.16,1.88-12.22,2.72-24.57,3.08-36.93.18-5.94.66-12.09-.01-18-.56-4.92-2.34-9.61-6.23-12.86-7.58-6.32-18.15-5.77-27.23-3.95-10.21,2.05-21.44,5.62-31.03-.41-1.88-1.18-3.56-2.72-4.73-4.61-.54-.87-.98-1.74-1.87-2.31-.98-.63-2.2-.85-3.34-.61s-1.93.9-2.85,1.48c-1.14.72-2.32,1.36-3.54,1.94-2.32,1.09-4.79,1.88-7.3,2.4-5.03,1.04-10.26.85-15.2-.56-1.86-.53-2.65,2.36-.8,2.89h0Z"/>
      </g>
      <g>
        <path class="cls-36" d="M1567.56,376.76c-31.91,5.03-59.81,30.45-68.09,61.67-2.44,9.19-3.29,18.96-1.06,28.21,4.86,20.17,22.99,34.12,32.9,52.35,12.43,22.84,11.07,50.3,12.42,76.27,1.35,25.97,7.46,54.69,28.84,69.5,22.01,15.25,52.36,10.05,76.7-1.11,45.98-21.09,81.77-60.45,106.46-104.6,8.63-15.43,16.16-31.89,18.15-49.45,1.99-17.56-2.23-36.51-14.51-49.24-15.23-15.78-39.61-19.09-61.29-15.79-17.36,2.64-35.59,8.78-51.87,2.2-16.49-6.67-25.32-24.1-34.87-39.11-9.55-15-26.2-33.51-43.79-30.9"/>
        <path class="cls-24" d="M1567.16,375.31c-27.29,4.38-51.58,23.24-63.62,47.98-6.9,14.18-10.57,31.29-5.76,46.68,4.35,13.94,14.53,24.83,23.2,36.21,4.6,6.04,8.82,12.34,11.86,19.33,3.27,7.53,5.24,15.6,6.48,23.7,2.49,16.21,2.02,32.66,3.09,48.98,1.76,26.77,9.16,58.05,35.18,71.31,13.28,6.77,28.65,7.38,43.1,4.85,15.11-2.65,29.39-8.74,42.72-16.19,26.22-14.66,48.77-35.33,67.32-58.84,9.43-11.96,17.9-24.66,25.41-37.91,8.35-14.74,15.88-30.43,18.62-47.29,2.42-14.88.88-30.75-6.47-44.11-7.01-12.74-19.11-21.27-32.97-25.19-14.55-4.11-29.66-3.27-44.37-.53-16.18,3.02-34.1,7.63-49.24-1.44-12.23-7.33-19.49-20.54-26.78-32.3-7.49-12.08-16.57-24.48-29.32-31.43-5.69-3.1-11.98-4.71-18.45-3.81-1.9.26-1.09,3.16.8,2.89,14.08-1.96,26.41,9.79,34.57,19.77,8.86,10.83,14.77,23.69,23.52,34.6,4.17,5.2,9.05,9.96,14.87,13.28,6.95,3.97,14.87,5.48,22.81,5.35,16.17-.27,31.67-6.02,47.86-6.28,13.89-.22,28.32,2.58,39.88,10.64,12.04,8.4,18.84,22.06,20.78,36.38,2.16,16-1.74,32.08-8.02,46.75-6.15,14.38-14.22,28.05-22.93,41.01-16.43,24.48-36.64,46.74-60.68,63.94-11.91,8.52-24.83,16.04-38.48,21.42-13.73,5.41-28.73,8.79-43.54,7.35-14.12-1.37-27.03-7.9-35.94-19.03-8.44-10.54-12.73-23.9-15.1-37.02-5.49-30.43.54-62.84-11.94-91.94-5.8-13.52-16-24.12-24.52-35.89-4.06-5.6-7.77-11.57-10.02-18.14-2.78-8.13-3.02-16.84-1.55-25.26,4.75-27.19,24.58-50.66,49.72-61.52,5.98-2.58,12.29-4.39,18.72-5.43,1.9-.31,1.09-3.2-.8-2.89h0Z"/>
      </g>
    </g>
  </g>
</svg>