<svg width="120" height="66" viewBox="0 0 120 66" fill="none" xmlns="http://www.w3.org/2000/svg">
<path d="M32 22.5L60.5 3L85 22.5" stroke="#FD2064" stroke-width="4"/>
<path d="M1.9 60V42.125H9.025C12.55 42.125 14.675 43.825 14.675 46.625C14.675 48.75 13.45 49.85 11.85 50.4V50.45C13.85 50.825 15.4 52.3 15.4 54.875C15.4 58.25 13.05 60 9.5 60H1.9ZM3.725 58.4H9.575C12.4 58.4 13.5 56.95 13.5 54.875C13.5 52.775 12.15 51.4 10.025 51.4H3.725V58.4ZM3.725 49.8H9.375C11.85 49.8 12.775 48.575 12.775 46.8C12.775 44.975 11.675 43.725 9.375 43.725H3.725V49.8ZM21.3574 60.325C18.8074 60.325 17.1824 58.9 17.1824 56.775C17.1824 54.025 19.1324 53.15 22.4324 52.575C24.5324 52.2 25.8824 52.05 25.8824 50.525C25.8824 49.225 25.0324 48.35 22.9824 48.35C20.5074 48.35 19.6324 49.225 19.5074 51.1H17.7824C17.9074 48.85 19.3324 46.925 23.0324 46.925C25.3824 46.925 27.4574 47.925 27.4574 50.975V57.35C27.4574 58.375 27.6074 58.85 28.1824 58.85C28.2824 58.85 28.3824 58.85 28.5324 58.825V60C28.2574 60.05 27.9824 60.1 27.6824 60.1C26.6074 60.1 25.9824 59.675 25.8824 58.075H25.8324C24.9574 59.525 23.4324 60.325 21.3574 60.325ZM18.8824 56.625C18.8824 58.1 19.7074 58.9 21.5574 58.9C24.1574 58.9 25.8824 57.525 25.8824 55.225V52.85C25.5074 53.375 24.1574 53.675 22.6324 53.925C20.1574 54.375 18.8824 55 18.8824 56.625ZM35.9771 60.325C32.3271 60.325 29.8771 57.625 29.8771 53.625C29.8771 49.65 32.3271 46.95 35.9771 46.95C39.0771 46.95 41.1771 49.025 41.4521 51.725H39.7521C39.6521 50.3 38.6271 48.375 35.9771 48.375C32.8521 48.375 31.5771 51.025 31.5771 53.625C31.5771 56.25 32.8521 58.925 35.9771 58.925C38.6521 58.925 39.6521 57 39.7521 55.45H41.4521C41.2771 58.2 39.0771 60.325 35.9771 60.325ZM43.6387 60V42.125H45.2637V53.25L51.5887 47.25H53.5887L48.5637 51.925L54.2137 60H52.2887L47.4637 52.95L45.2637 55V60H43.6387ZM64.1355 60.1C62.2855 60.1 61.1355 59.475 61.1355 56.7V48.675H59.2605V47.25H61.1355V43H62.7605V47.25H65.3355V48.675H62.7605V56.725C62.7605 58.3 63.1105 58.675 64.3605 58.675C64.7605 58.675 64.9605 58.65 65.3355 58.625V60C64.8355 60.075 64.5355 60.1 64.1355 60.1ZM72.5744 60.35C68.7494 60.35 66.4494 57.6 66.4494 53.65C66.4494 49.675 68.7494 46.925 72.5744 46.925C76.3994 46.925 78.6994 49.675 78.6994 53.65C78.6994 57.6 76.3994 60.35 72.5744 60.35ZM68.1494 53.65C68.1494 56.575 69.5994 58.925 72.5744 58.925C75.5494 58.925 76.9994 56.575 76.9994 53.65C76.9994 50.7 75.5494 48.35 72.5744 48.35C69.5994 48.35 68.1494 50.7 68.1494 53.65ZM90.1609 60.1C88.3109 60.1 87.1609 59.475 87.1609 56.7V48.675H85.2859V47.25H87.1609V43H88.7859V47.25H91.3609V48.675H88.7859V56.725C88.7859 58.3 89.1359 58.675 90.3859 58.675C90.7859 58.675 90.9859 58.65 91.3609 58.625V60C90.8609 60.075 90.5609 60.1 90.1609 60.1ZM98.5998 60.35C94.7748 60.35 92.4748 57.6 92.4748 53.65C92.4748 49.675 94.7748 46.925 98.5998 46.925C102.425 46.925 104.725 49.675 104.725 53.65C104.725 57.6 102.425 60.35 98.5998 60.35ZM94.1748 53.65C94.1748 56.575 95.6248 58.925 98.5998 58.925C101.575 58.925 103.025 56.575 103.025 53.65C103.025 50.7 101.575 48.35 98.5998 48.35C95.6248 48.35 94.1748 50.7 94.1748 53.65ZM112.993 60.3C110.768 60.3 109.443 59.2 108.693 57.85H108.643V64.425H107.018V47.25H108.643V49.3H108.693C109.443 48.075 110.768 46.925 112.993 46.925C116.118 46.925 118.618 49.425 118.618 53.625C118.618 57.8 116.118 60.3 112.993 60.3ZM108.643 53.625C108.643 56.825 110.368 58.875 112.818 58.875C115.468 58.875 116.918 56.475 116.918 53.625C116.918 50.75 115.468 48.35 112.818 48.35C110.368 48.35 108.643 50.4 108.643 53.625Z" fill="#FD2064"/>
</svg>
