<?xml version="1.0" encoding="UTF-8"?>
<svg id="Layer_24" xmlns="http://www.w3.org/2000/svg" xmlns:xlink="http://www.w3.org/1999/xlink" viewBox="0 0 613 562">
  <defs>
    <style>
      .cls-1 {
        fill: none;
      }

      .cls-2 {
        fill: url(#linear-gradient);
      }

      .cls-3 {
        clip-path: url(#clippath);
      }
    </style>
    <clipPath id="clippath">
      <rect class="cls-1" width="613" height="562"/>
    </clipPath>
    <linearGradient id="linear-gradient" x1="100.57" y1="-345.33" x2="1010.3" y2="-345.33" gradientTransform="translate(117.43 518.2) rotate(-17.7)" gradientUnits="userSpaceOnUse">
      <stop offset="0" stop-color="#ffb3cf"/>
      <stop offset=".41" stop-color="#fea9c8"/>
      <stop offset="1" stop-color="#fc94ba"/>
    </linearGradient>
  </defs>
  <g class="cls-3">
    <path class="cls-2" d="M552.84-370.76c-130.03,7.33-257.01,60.47-353.51,147.92-37.61,34.09-71.38,74.4-87.76,122.45-16.38,48.05-12.93,104.9,18.17,145.02,18.18,23.45,44.56,40.13,59.91,65.52,49.14,81.29-40.62,188.82-8.06,278.05,17.21,47.17,66.4,76.93,116.06,84.33,49.66,7.39,100.09-3.85,148.53-17.09,132.68-36.26,261.1-88.08,381.79-154.06,70.79-38.7,142.3-85.91,177.72-158.39,35.41-72.49,18.9-175.77-53.7-210.93-65.43-31.69-157.48-3.1-205.86-57.36-39.82-44.66-22.23-117.82-52.82-169.24-20.22-34-57.98-52.81-93.7-69.81-26.97-12.84-74.08-7.8-111.62,1.3"/>
  </g>
</svg>